<?xml version="1.0" encoding="UTF-8" standalone="no"?>
<svg
   xmlns:dc="http://purl.org/dc/elements/1.1/"
   xmlns:cc="http://creativecommons.org/ns#"
   xmlns:rdf="http://www.w3.org/1999/02/22-rdf-syntax-ns#"
   xmlns:svg="http://www.w3.org/2000/svg"
   xmlns="http://www.w3.org/2000/svg"
   id="svg8"
   version="1.1"
   viewBox="0 0 67.733332 67.733335"
   height="256"
   width="256">
  <defs
     id="defs2" />
  <metadata
     id="metadata5">
    <rdf:RDF>
      <cc:Work
         rdf:about="">
        <dc:format>image/svg+xml</dc:format>
        <dc:type
           rdf:resource="http://purl.org/dc/dcmitype/StillImage" />
        <dc:title></dc:title>
      </cc:Work>
    </rdf:RDF>
  </metadata>
  <g
     transform="translate(0,-229.26665)"
     id="layer1">
    <g
       style="font-style:normal;font-variant:normal;font-weight:normal;font-stretch:normal;font-size:6.22258px;line-height:1.25;font-family:Armagetronad;-inkscape-font-specification:'Armagetronad, Normal';font-variant-ligatures:normal;font-variant-caps:normal;font-variant-numeric:normal;font-feature-settings:normal;text-align:start;letter-spacing:0.548115px;word-spacing:0px;writing-mode:lr-tb;text-anchor:start;fill:#ffffff;fill-opacity:1;stroke:none;stroke-width:0.26821"
       id="text817"
       transform="scale(0.91658733,1.0910035)"
       aria-label=" !&quot;#$%&amp;'()*+,-./
0123456789:;&lt;=&gt;?
@ABCDEFGHIJKLMNO
PQRSTUVWXYZ[\]^_
`abcdefghijklmno
pqrstuvwxyz{|}- ">
      <path
         id="path897"
         style="stroke-width:0.26821"
         d="m 5.6879119,230.79768 h 0.8264364 v 0.97228 H 5.6879119 Z m -0.012153,-3.98026 h 0.8142829 v 3.50628 q -0.1823021,-0.11546 -0.2491462,-0.16408 -0.066844,-0.0486 -0.2066091,-0.19445 -0.139765,-0.15192 -0.2005324,-0.30384 -0.054691,-0.15192 -0.1093813,-0.42537 -0.048614,-0.27345 -0.048614,-0.63198 z" />
      <path
         id="path899"
         style="stroke-width:0.26821"
         d="m 13.418732,226.81742 v 0.83859 l -0.911511,1.62249 -0.680595,-2.46108 z m -3.415127,0 h 1.592105 l -0.680595,2.46108 -0.91151,-1.62249 z" />
      <path
         id="path901"
         style="stroke-width:0.26821"
         d="m 16.780376,228.38522 h -0.905434 v 0.92366 h 0.905434 z m -1.537415,-1.5678 h 0.607674 v 0.92974 h 0.954048 v -0.91151 h 0.59552 v 0.91758 h 0.619827 v 0.60768 h -0.61375 v 0.95405 h 0.638057 v 0.60767 h -0.61375 v 0.92974 h -0.638058 v -0.92974 h -0.911511 v 0.90543 h -0.638057 v -0.92974 h -0.625904 v -0.60159 h 0.619827 v -0.92367 h -0.619827 v -0.60767 h 0.61375 z" />
      <path
         id="path903"
         style="stroke-width:0.26821"
         d="m 20.646391,226.83565 h 0.625904 v 0.95405 h 1.221424 v 0.61982 h -2.473232 v 0.61983 h 2.479309 v 1.85341 h -1.221425 v 0.91151 h -0.619827 v -0.92975 h -1.257885 v -0.6259 h 2.47931 v -0.59552 h -2.47931 v -1.87163 h 1.233578 z" />
      <path
         id="path905"
         style="stroke-width:0.26821"
         d="m 27.289472,226.81742 v 1.00874 l -3.42728,3.96811 v -1.00874 z m -0.947971,4.07141 h 0.947971 v 0.90544 h -0.947971 z m -2.491463,-4.07141 h 0.947972 v 0.91151 h -0.947972 z" />
      <path
         id="path907"
         style="stroke-width:0.26821"
         d="m 29.794297,229.29065 q 0.06684,-0.0425 0.206609,-0.12154 0.139765,-0.079 0.200533,-0.11545 0.06684,-0.0365 0.157995,-0.10938 0.09723,-0.0729 0.139765,-0.12762 0.04254,-0.0547 0.07292,-0.13976 0.03646,-0.0851 0.03646,-0.1823 0,-0.49222 -0.765669,-0.49222 -0.285607,0 -0.528676,0.13977 -0.236993,0.13368 -0.236993,0.37068 0,0.13369 0.182302,0.31599 0.182302,0.1823 0.534753,0.46183 z m 1.871636,1.54349 0.218762,0.17623 v 0.7839 h -0.145842 l -0.61375,-0.51045 q -0.662365,0.51045 -1.300422,0.51045 -0.5226,0 -0.929741,-0.2613 -0.401065,-0.26738 -0.401065,-0.70491 0,-0.4679 0.164072,-0.7049 0.170149,-0.24307 0.504369,-0.4436 -0.328143,-0.25522 -0.498292,-0.51652 -0.170149,-0.2613 -0.170149,-0.63198 0,-0.47399 0.419295,-0.77175 0.425372,-0.30384 0.966201,-0.30384 0.631981,0 0.978355,0.25523 0.352451,0.25522 0.352451,0.76567 0,0.23091 -0.07292,0.41321 -0.06684,0.17623 -0.230916,0.32815 -0.157995,0.14584 -0.285606,0.23091 -0.121535,0.079 -0.370681,0.22484 l 0.947971,0.76567 q 0.382834,-0.37068 0.516522,-0.43752 0.09723,-0.0486 0.170149,-0.0486 v 0.68668 z m -0.996586,0.0669 -0.899357,-0.74744 -0.145842,-0.12154 q -0.249146,0.13977 -0.376757,0.29169 -0.127612,0.15191 -0.127612,0.43144 0,0.22484 0.230916,0.32815 0.230916,0.0972 0.528676,0.0972 0.388912,0 0.789976,-0.27953 z" />
      <path
         id="path909"
         style="stroke-width:0.26821"
         d="m 34.389522,226.83565 h 0.850743 v 0.9662 l -0.862897,1.68933 z" />
      <path
         id="path911"
         style="stroke-width:0.26821"
         d="m 39.276428,229.35142 q 0,-0.91759 0.467909,-1.57995 0.467909,-0.66845 1.087736,-0.93582 v 0.56513 q -0.340297,0.237 -0.644134,0.78998 -0.303837,0.55298 -0.303837,1.1242 0,0.57729 0.29776,1.12419 0.303837,0.54083 0.650211,0.74744 v 0.60768 q -0.188379,0 -0.455755,-0.21877 -0.2613,-0.21876 -0.510446,-0.55298 -0.24307,-0.33422 -0.419295,-0.78998 -0.170149,-0.46183 -0.170149,-0.88112 z" />
      <path
         id="path913"
         style="stroke-width:0.26821"
         d="m 44.248405,229.35142 q 0,0.41929 -0.176226,0.88112 -0.170148,0.45576 -0.419295,0.78998 -0.243069,0.33422 -0.510446,0.55298 -0.261299,0.21877 -0.449678,0.21877 v -0.60768 q 0.346374,-0.20661 0.644134,-0.74744 0.303837,-0.5469 0.303837,-1.12419 0,-0.57122 -0.303837,-1.1242 -0.303837,-0.55298 -0.644134,-0.78998 v -0.56513 q 0.619827,0.26737 1.087736,0.93582 0.467909,0.66236 0.467909,1.57995 z" />
      <path
         id="path915"
         style="stroke-width:0.26821"
         d="m 48.248107,231.15013 v -1.16673 l -0.911511,0.87505 -0.364604,-0.40107 1.227501,-1.21534 -1.19104,-1.07559 0.376757,-0.42537 0.887204,0.83859 v -1.13635 h 0.631981 v 1.1242 l 0.887204,-0.83859 0.376757,0.42537 -1.19104,1.1242 1.227501,1.16673 -0.364604,0.40106 -0.911511,-0.87505 v 1.17889 z" />
      <path
         id="path917"
         style="stroke-width:0.26821"
         d="m 51.737364,229.60664 v -0.61983 h 1.257884 v -1.21534 h 0.613751 v 1.22142 H 54.8365 v 0.61375 h -1.227501 v 1.25788 h -0.613751 v -1.25788 z" />
      <path
         id="path919"
         style="stroke-width:0.26821"
         d="m 56.016596,229.63095 h 1.859482 v 2.16332 h -0.607674 v -1.54957 h -1.251808 z" />
      <path
         id="path921"
         style="stroke-width:0.26821"
         d="m 61.322797,229.93478 v -0.6259 h 2.400312 v 0.6259 z" />
      <path
         id="path923"
         style="stroke-width:0.26821"
         d="m 66.677616,230.86452 h 0.935818 v 0.93582 h -0.935818 z" />
      <path
         id="path925"
         style="stroke-width:0.26821"
         d="m 73.460465,226.81742 v 0.89935 l -3.001909,4.0775 h -0.388911 v -0.51045 z" />
      <path
         id="path927"
         style="stroke-width:0.26821"
         d="m 2.0892742,235.25801 q -0.4557554,0 -0.5955203,0.17622 -0.1336883,0.17623 -0.1336883,0.7049 0,0.46184 0,1.01482 0.00608,0.54691 0.00608,0.90543 0,0.52868 0.1336883,0.69883 0.139765,0.17015 0.6137506,0.17015 h 0.7292085 q 0.4496787,0 0.5894436,-0.18231 0.1458418,-0.18837 0.1458418,-0.75351 v -1.86556 q 0,-0.50437 -0.1579952,-0.68667 -0.1579952,-0.1823 -0.6137506,-0.1823 z m -0.2066091,-0.64414 h 1.1059664 q 0.7049016,0 0.9479711,0.24915 0.2430696,0.24307 0.2430696,0.92366 0,0.58945 0.00608,1.26396 0.00608,0.67452 0.00608,1.25789 0,0.76567 -0.230916,1.01481 -0.2248393,0.24915 -0.9236642,0.24915 H 1.9191255 q -0.3767577,0 -0.5955203,-0.0486 -0.2187626,-0.0486 -0.35245084,-0.18838 -0.1276115,-0.14584 -0.17014867,-0.35245 -0.0364604,-0.21269 -0.0364604,-0.58337 0,-0.48614 -0.006077,-1.2275 -0.006077,-0.74136 -0.006077,-1.36727 0,-0.71098 0.21268583,-0.94797 0.21876258,-0.24307 0.91758748,-0.24307 z" />
      <path
         id="path929"
         style="stroke-width:0.26821"
         d="m 5.384075,234.61387 h 2.0478608 v 4.29626 h 0.6805947 v -1.51919 h 0.6866714 v 2.18155 H 5.384075 v -0.66236 h 1.3672661 v -3.69466 H 5.384075 Z" />
      <path
         id="path931"
         style="stroke-width:0.26821"
         d="m 9.997528,234.61387 h 3.42728 v 2.78315 h -2.783146 v 1.17281 q 0,0.16407 0.103305,0.2613 0.103304,0.0972 0.291683,0.0972 h 2.388158 v 0.64413 h -3.42728 v -2.80745 h 2.825683 v -1.52526 H 9.997528 Z" />
      <path
         id="path933"
         style="stroke-width:0.26821"
         d="m 14.768975,234.59564 h 3.123444 v 4.97685 h -3.123444 v -0.63198 h 2.49754 v -1.54349 h -1.859482 v -0.60768 h 1.859482 v -1.55564 h -2.49754 z" />
      <path
         id="path935"
         style="stroke-width:0.26821"
         d="m 19.564731,234.59564 h 0.607674 v 2.77099 h 1.239655 v -2.14508 h 0.638057 v 2.14508 h 0.285607 v 0.63806 h -0.285607 v 1.5678 H 21.41206 v -1.5678 h -1.847329 z" />
      <path
         id="path937"
         style="stroke-width:0.26821"
         d="m 25.065386,238.95266 h 1.567799 v -1.57387 h -2.163319 v -2.78315 h 2.783146 v 0.62591 h -2.126858 v 1.55564 h 2.126858 v 2.7953 h -2.187626 q -0.182302,0 -0.303837,-0.006 -0.115458,-0.0121 -0.243069,-0.0608 -0.121535,-0.0486 -0.164072,-0.0669 -0.04254,-0.0182 -0.218763,-0.12761 -0.176225,-0.11546 -0.249146,-0.15799 l 0.303837,-0.51045 q 0.02431,0.0121 0.115458,0.0668 0.09115,0.0547 0.121535,0.0729 0.03038,0.0122 0.109381,0.0547 0.079,0.0365 0.121535,0.0486 0.04254,0.0121 0.115458,0.0365 0.07292,0.0182 0.139765,0.0243 0.07292,0.006 0.151918,0.006 z" />
      <path
         id="path939"
         style="stroke-width:0.26821"
         d="m 31.264868,238.029 h -2.157242 v 0.8872 h 2.157242 z m 0.638057,-0.64414 v 2.18763 h -3.42728 v -4.97685 h 0.947971 v 0.61983 h -0.31599 v 2.16939 z" />
      <path
         id="path941"
         style="stroke-width:0.26821"
         d="m 33.891229,235.54361 h -0.619827 v -0.92974 h 3.07483 v 1.81087 q 0,0.2613 -0.103305,0.4436 -0.09723,0.1823 -0.224839,0.27346 -0.121535,0.0851 -0.322067,0.21876 -0.194456,0.12761 -0.309914,0.24307 -0.188379,0.18838 -0.236993,0.34637 -0.04254,0.158 -0.04254,0.45576 v 1.16673 h -0.59552 v -1.16673 q 0,-0.32207 0.03038,-0.54691 0.03038,-0.22484 0.103305,-0.35245 0.07292,-0.13369 0.121535,-0.19446 0.05469,-0.0608 0.157995,-0.13368 0.109381,-0.0729 0.145842,-0.10331 0.09723,-0.079 0.236992,-0.17622 0.139765,-0.10331 0.206609,-0.158 0.07292,-0.0547 0.127612,-0.13369 0.06077,-0.0851 0.06077,-0.1823 v -1.20927 h -1.810868 z" />
      <path
         id="path943"
         style="stroke-width:0.26821"
         d="m 40.528236,237.4031 h -2.193702 v 1.5131 h 2.193702 z m -0.638057,-2.18763 h -0.911511 v 1.54957 h 0.911511 z m -2.163319,4.35702 v -2.80745 h 0.607674 v -2.15117 h 2.193702 v 2.15117 h 0.601597 v 2.80745 z" />
      <path
         id="path945"
         style="stroke-width:0.26821"
         d="m 45.159916,235.20939 h -2.18155 v 0.92974 h 2.18155 z m -0.309914,3.74327 h 0.309914 v -2.18762 h -2.825684 v -2.1694 h 3.427281 v 4.97685 h -0.911511 z" />
      <path
         id="path947"
         style="stroke-width:0.26821"
         d="m 48.20557,235.85353 h 0.929741 v 0.93581 H 48.20557 Z m 0,1.84733 h 0.929741 v 0.94189 H 48.20557 Z" />
      <path
         id="path949"
         style="stroke-width:0.26821"
         d="m 52.357191,237.40917 h 1.859482 v 2.16332 h -0.607674 v -1.54957 h -1.251808 z m 0.02431,-1.88986 h 0.929741 v 0.94189 h -0.923664 z" />
      <path
         id="path951"
         style="stroke-width:0.26821"
         d="m 56.192821,237.01418 3.427281,-2.09039 v 0.80213 l -2.479309,1.49487 2.479309,1.51311 v 0.80213 l -3.427281,-2.0904 z" />
      <path
         id="path953"
         style="stroke-width:0.26821"
         d="m 60.812351,236.45512 v -0.6259 h 3.42728 v 0.6259 z m 0,1.25789 v -0.62591 h 3.42728 v 0.62591 z" />
      <path
         id="path955"
         style="stroke-width:0.26821"
         d="m 68.859165,237.01418 v 0.43145 l -3.42728,2.0904 v -0.80213 l 2.479309,-1.51311 -2.479309,-1.49487 v -0.80213 z" />
      <path
         id="path957"
         style="stroke-width:0.26821"
         d="m 70.640858,238.62452 v -0.58944 q 0,-0.20661 0.06684,-0.37676 0.07292,-0.17015 0.212686,-0.30992 0.145842,-0.13976 0.27953,-0.23699 0.133688,-0.1033 0.340297,-0.24307 0.212686,-0.13976 0.328144,-0.23091 0.09115,-0.0729 0.382835,-0.29169 0.29776,-0.21876 0.431448,-0.34029 0.133688,-0.12762 0.133688,-0.21269 0,-0.57729 -0.230916,-0.57729 -0.06684,0 -0.139765,0.0182 -0.06684,0.0121 -0.151918,0.0547 -0.079,0.0365 -0.145842,0.0729 -0.06077,0.0304 -0.157995,0.10331 -0.09723,0.0668 -0.151919,0.10938 -0.05469,0.0365 -0.170148,0.12153 -0.115458,0.0851 -0.164072,0.12154 l -1.008739,0.72921 -0.401064,-0.41322 1.118119,-0.80821 q 0.601597,-0.43752 0.875051,-0.58944 0.27953,-0.158 0.498292,-0.158 0.850744,0 0.850744,1.21535 0,0.15192 -0.06077,0.29168 -0.06077,0.13369 -0.200532,0.26738 -0.139765,0.13369 -0.255223,0.22484 -0.115458,0.0851 -0.334221,0.23699 -0.212686,0.14584 -0.31599,0.22484 -0.650211,0.48614 -0.82036,0.66237 -0.188379,0.20053 -0.188379,0.33422 v 0.58944 z m 0,0.32814 h 0.619827 v 0.61983 h -0.619827 z" />
      <path
         id="path959"
         style="stroke-width:0.26821"
         d="m 2.2837298,243.01192 q -0.078998,0 -0.139765,0.006 -0.060767,0.006 -0.1093812,0.0243 -0.048614,0.0122 -0.078998,0.0243 -0.030384,0.006 -0.066844,0.0365 -0.03646,0.0304 -0.054691,0.0425 -0.012153,0.0122 -0.048614,0.0547 -0.03646,0.0365 -0.048614,0.0486 l -0.3463741,0.41929 -0.50436927,-0.32814 0.28560667,-0.34638 q 0.1458417,-0.1823 0.3220672,-0.29776 0.1762254,-0.12153 0.3281438,-0.1823 0.1519185,-0.0668 0.394988,-0.0972 0.2430695,-0.0304 0.4071415,-0.0365 0.1701486,-0.006 0.486139,-0.006 h 0.048614 q 0.5286763,0 0.7778225,0.27345 0.255223,0.26738 0.255223,0.87505 v 1.44019 1.36726 q 0,0.54691 -0.2430695,0.7839 -0.2430695,0.237 -0.789976,0.237 H 0.75239179 v -3.09914 H 2.6240272 v 2.46108 h 0.5712134 q 0.1458417,0 0.255223,-0.10938 0.1093813,-0.11546 0.1093813,-0.27346 v -2.80745 q 0,-0.19446 -0.1093813,-0.35245 -0.1093813,-0.158 -0.2916835,-0.158 z m -0.8932805,1.85949 v 1.84125 h 0.6137506 v -1.84125 z" />
      <path
         id="path961"
         style="stroke-width:0.26821"
         d="M 8.8903529,247.37502 H 8.0699933 L 7.7236192,246.27513 H 6.4171205 l -0.3159904,1.09989 H 5.2929239 L 7.055178,242.3921 Z m -2.3091605,-1.73794 h 0.9540479 l -0.4496786,-1.40981 z" />
      <path
         id="path963"
         style="stroke-width:0.26821"
         d="m 11.571403,242.99369 h -0.765669 v 1.53134 h 0.83859 q 0.443602,0 0.631981,-0.1823 0.194455,-0.18838 0.194455,-0.61983 0,-0.38891 -0.255223,-0.55906 -0.255223,-0.17015 -0.644134,-0.17015 z m -0.01215,2.18763 h -0.765669 v 1.53134 h 0.83859 q 0.437525,0 0.625904,-0.1823 0.188378,-0.18231 0.188378,-0.61983 0,-0.38891 -0.255223,-0.55906 -0.249146,-0.17015 -0.63198,-0.17015 z m 1.47057,-0.0547 q 0.218763,0.29168 0.218763,0.89328 0,0.6016 -0.328144,0.9662 -0.328144,0.36461 -0.887204,0.36461 h -1.859482 v -4.94039 h 1.762254 q 0.54083,0 0.923665,0.40714 0.388911,0.40106 0.388911,0.90543 0,0.50437 -0.224839,0.80213 -0.218763,0.29776 -0.577291,0.30992 0.370682,0 0.583367,0.29168 z" />
      <path
         id="path965"
         style="stroke-width:0.26821"
         d="m 17.795191,242.37387 v 0.60159 h -0.984432 q -0.352451,0 -0.601597,0.11546 -0.249146,0.11546 -0.382834,0.27953 -0.127612,0.16407 -0.200533,0.43753 -0.07292,0.27345 -0.09115,0.49221 -0.01215,0.21877 -0.01215,0.54691 0,0.30991 0.02431,0.53475 0.02431,0.22484 0.109381,0.48006 0.09115,0.24915 0.24307,0.40715 0.151918,0.15799 0.425371,0.2613 0.273453,0.1033 0.656288,0.1033 h 0.814283 v 0.6806 h -1.178887 q -0.370681,0 -0.674518,-0.14585 -0.29776,-0.14584 -0.498293,-0.38283 -0.194455,-0.24307 -0.328144,-0.56514 -0.133688,-0.32206 -0.194455,-0.66236 -0.05469,-0.34638 -0.05469,-0.71098 0,-1.13635 0.394988,-1.80479 0.401065,-0.66844 1.197117,-0.66844 z" />
      <path
         id="path967"
         style="stroke-width:0.26821"
         d="m 20.652467,242.97546 v 3.76151 h 0.255223 q 0.413219,0 0.680595,-0.54083 0.267377,-0.54083 0.267377,-1.3065 0,-0.86898 -0.267377,-1.39158 -0.267376,-0.5226 -0.735285,-0.5226 z m -0.650211,3.7372 v -3.73112 h -0.656287 v -0.60767 h 1.816944 q 0.334221,0 0.589444,0.15799 0.255223,0.158 0.401065,0.40714 0.151918,0.24307 0.243069,0.59552 0.09115,0.34638 0.121535,0.67452 0.03038,0.32207 0.03038,0.69883 0,0.48006 -0.06684,0.8872 -0.06684,0.40714 -0.22484,0.77175 -0.151918,0.3646 -0.443602,0.57729 -0.285606,0.20661 -0.686671,0.20661 h -1.762254 v -0.63199 z" />
      <path
         id="path969"
         style="stroke-width:0.26821"
         d="m 23.99588,247.35072 v -4.95862 l 3.147751,0.006 v 0.62591 l -2.491463,0.0121 v 1.51919 l 1.239655,0.006 -0.01215,0.61375 -1.251808,0.006 0.01215,1.51311 2.491463,-0.006 v 0.66237 z" />
      <path
         id="path971"
         style="stroke-width:0.26821"
         d="m 28.61541,247.35072 v -4.95862 l 3.14775,0.006 v 0.62591 l -2.491462,0.0121 v 1.51919 l 1.239654,0.006 -0.01215,0.61375 -1.251808,0.006 0.01215,1.51311 -0.01215,0.65629 z" />
      <path
         id="path973"
         style="stroke-width:0.26821"
         d="m 34.644745,245.16309 1.877712,0.006 v 2.18155 h -3.42728 v -3.43336 l 1.525261,-1.52526 h 1.883789 l 0.0061,0.59552 -1.513107,0.006 -1.270039,1.27612 0.0061,2.455 h 2.151165 l -0.0061,-0.92366 -1.227501,-0.006 z" />
      <path
         id="path975"
         style="stroke-width:0.26821"
         d="m 40.503929,244.54934 v -2.1694 h 0.631981 v 4.97685 l -0.631981,-0.006 v -2.19371 l -2.145088,0.006 v 2.18763 h -0.638058 l 0.0061,-4.97078 h 0.631981 v 2.16332 z" />
      <path
         id="path977"
         style="stroke-width:0.26821"
         d="m 42.41323,242.37994 3.269285,-0.006 v 0.61982 l -1.294345,0.006 -0.0061,3.70681 1.300422,0.0121 v 0.63199 H 42.41323 v -0.63806 h 1.300422 l -0.0061,-3.71897 H 42.41323 Z" />
      <path
         id="path979"
         style="stroke-width:0.26821"
         d="m 49.256846,246.34198 -0.0061,-3.91342 h 0.601597 v 3.91342 q 0,0.2856 -0.079,0.49221 -0.079,0.20054 -0.182302,0.30384 -0.09723,0.0972 -0.273453,0.15192 -0.176225,0.0486 -0.27953,0.0547 -0.103304,0.006 -0.27953,0.006 h -0.31599 q -0.157995,0 -0.249146,-0.006 -0.09115,-0.006 -0.249147,-0.0608 -0.151918,-0.0547 -0.236993,-0.15192 -0.08507,-0.1033 -0.157995,-0.30991 -0.06684,-0.20661 -0.06684,-0.50437 v -1.14243 l 0.583367,0.0122 v 1.17888 q 0,0.237 0.06077,0.29169 0.06077,0.0486 0.322068,0.0547 l 0.437525,0.006 q 0.224839,-0.0182 0.29776,-0.0972 0.07292,-0.079 0.07292,-0.27953 z" />
      <path
         id="path981"
         style="stroke-width:0.26821"
         d="m 54.85473,242.37994 -0.0061,0.30992 -2.005324,2.0114 2.005324,2.36385 v 0.29776 h -0.674518 l -1.810868,-2.21193 0.01215,2.20585 -0.656288,-0.006 v -4.98293 l 0.644135,0.006 v 1.81087 l 1.823021,-1.8048 z" />
      <path
         id="path983"
         style="stroke-width:0.26821"
         d="m 56.265742,242.3921 h 0.601597 l 0.0061,4.35094 h 2.667688 l 0.01215,0.60768 h -3.293592 z" />
      <path
         id="path985"
         style="stroke-width:0.26821"
         d="m 64.063406,242.37387 v 4.97685 h -0.619827 v -3.68251 l -0.887204,1.17281 -0.947971,-1.28219 -0.01215,3.79189 h -0.607673 v -4.97078 l 0.656287,-0.006 0.887204,1.17888 0.87505,-1.17281 z" />
      <path
         id="path987"
         style="stroke-width:0.26821"
         d="m 68.294028,242.37994 h 0.650211 l 0.01215,4.9647 -0.638058,0.006 -2.297007,-3.8162 v 3.77366 h -0.686671 v -4.92824 h 0.656288 l 2.297007,3.68251 z" />
      <path
         id="path989"
         style="stroke-width:0.26821"
         d="m 71.765055,243.15777 q -0.352451,0 -0.607674,0.26737 -0.249147,0.26738 -0.358528,0.63806 -0.109381,0.37068 -0.109381,0.78998 0,0.30991 0.06077,0.60159 0.06684,0.28561 0.194456,0.54083 0.127611,0.24915 0.346374,0.40107 0.224839,0.15192 0.510446,0.15192 0.273453,0 0.486139,-0.15192 0.212686,-0.15192 0.328144,-0.40107 0.121535,-0.24914 0.176225,-0.53475 0.06077,-0.28561 0.06077,-0.58944 0,-0.42538 -0.103305,-0.79606 -0.09723,-0.37675 -0.358527,-0.64413 -0.255223,-0.27345 -0.625904,-0.27345 z m 0.01823,-0.76567 q 0.540829,0 0.947971,0.38891 0.407141,0.38283 0.59552,0.94797 0.188379,0.55906 0.188379,1.17889 0,0.61375 -0.188379,1.15458 -0.188379,0.54083 -0.601597,0.91758 -0.407141,0.37069 -0.960124,0.37069 -0.419295,0 -0.765669,-0.21269 -0.340298,-0.21269 -0.552984,-0.55906 -0.206609,-0.35245 -0.322067,-0.77782 -0.109381,-0.42537 -0.109381,-0.87505 0,-0.45576 0.109381,-0.89328 0.115458,-0.44361 0.328144,-0.81429 0.212686,-0.37068 0.55906,-0.59552 0.346374,-0.23091 0.771746,-0.23091 z" />
      <path
         id="path991"
         style="stroke-width:0.26821"
         d="m 1.4086795,250.79623 v 1.84732 l 1.555645,0.006 q 0.2673765,0 0.4192949,-0.15799 0.1579952,-0.158 0.1762255,-0.44968 v -0.63806 q 0,-0.61983 -0.6198273,-0.61983 z m -0.012154,2.455 -0.012153,1.87771 H 0.76454526 v -4.97685 H 2.9400176 q 1.2275011,0.006 1.2275011,1.21535 l 0.012154,0.71098 q 0,0.55906 -0.3342207,0.86289 -0.3281438,0.30384 -0.8689735,0.30992 z" />
      <path
         id="path993"
         style="stroke-width:0.26821"
         d="m 7.681082,253.91967 q 0.2066091,-0.17623 0.3402974,-0.54083 0.139765,-0.3646 0.1458417,-0.76567 l 0.012153,-1.37334 q 0,-0.17015 -0.060767,-0.31599 -0.060767,-0.15192 -0.1579952,-0.15192 -0.4132182,0 -0.8568201,0.27345 -0.4436019,0.26738 -0.7535155,0.74136 -0.3099137,0.47399 -0.3099137,0.99051 v 1.03913 q 0,0.25522 0.078998,0.4679 0.085074,0.20661 0.2369928,0.20661 0.394988,0 0.765669,-0.17015 l -0.510446,-0.86897 0.5469065,-0.38891 z m 1.069506,0.56514 0.012153,0.60767 H 7.5717008 l -0.1033046,-0.1823 q -0.4922158,0.21876 -1.1485035,0.21876 -0.3342206,0 -0.6198273,-0.31599 -0.27953,-0.31599 -0.27953,-0.96012 v -1.07559 q 0,-0.51044 0.2248393,-1.00266 0.2248393,-0.49221 0.5772902,-0.83859 0.3585275,-0.35245 0.8082061,-0.56514 0.4557554,-0.21876 0.8932806,-0.21876 h 0.024307 0.048614 0.1033046 q 0.1276115,0 0.2066091,0.0122 0.078998,0.0121 0.1762254,0.0668 0.097228,0.0486 0.1519184,0.15192 0.054691,0.0972 0.091151,0.2856 0.03646,0.18231 0.03646,0.44968 l -0.012153,1.50096 q 0,1.18496 -0.650211,1.8534 z" />
      <path
         id="path995"
         style="stroke-width:0.26821"
         d="m 10.647739,250.79623 v 1.63464 l 1.555645,0.006 q 0.267376,0 0.419295,-0.158 0.157995,-0.15799 0.176225,-0.44968 v -0.42537 q 0,-0.61983 -0.619827,-0.61983 z m -0.02431,4.33271 h -0.619827 v -4.97685 h 2.175472 q 1.227501,0.006 1.227501,1.21535 l 0.01215,0.49829 q 0,0.56514 -0.315991,0.86898 -0.31599,0.29776 -0.850743,0.30383 l -0.753516,0.006 1.871636,2.08432 h -0.887204 l -1.859482,-2.06609 z" />
      <path
         id="path997"
         style="stroke-width:0.26821"
         d="m 14.623133,251.37959 -0.01215,-1.2275 h 3.439434 l -0.01215,1.22143 h -0.340297 l -0.59552,-0.6016 h -1.871636 l 2.807453,3.19029 0.01215,1.16065 -3.439434,0.006 v -1.27611 l 0.31599,0.006 0.619828,0.61375 1.786561,0.006 z" />
      <path
         id="path999"
         style="stroke-width:0.26821"
         d="m 19.400659,250.17032 h 3.099137 v 1.2275 l -0.619827,-0.006 v -0.61983 h -0.619828 v 4.35702 h -0.601597 v -4.35702 h -0.619827 v 0.61983 h -0.638058 z" />
      <path
         id="path1001"
         style="stroke-width:0.26821"
         d="m 25.028926,255.13502 q -0.589444,-0.006 -0.875051,-0.2613 -0.285606,-0.2613 -0.285606,-0.92974 v -3.77366 l 0.638057,0.006 0.0061,3.74935 q 0,0.30383 0.133688,0.43144 0.139765,0.12762 0.443602,0.12762 h 0.996585 q 0.309914,0 0.443602,-0.12154 0.133688,-0.12761 0.133688,-0.43752 l -0.0061,-3.77366 0.619827,0.006 -0.0061,3.77973 q 0,0.66844 -0.27953,0.92974 -0.27953,0.2613 -0.881127,0.2613 z" />
      <path
         id="path1003"
         style="stroke-width:0.26821"
         d="m 30.195362,253.94398 1.057352,-2.46716 v -1.29434 l 0.595521,0.006 v 1.69541 l -1.349036,3.24498 -0.619828,-0.006 -1.349035,-3.24497 v -1.70757 l 0.59552,0.006 v 1.29434 z" />
      <path
         id="path1005"
         style="stroke-width:0.26821"
         d="m 34.267987,255.12894 q -0.583367,0 -0.796053,-0.21876 -0.212685,-0.22484 -0.212685,-0.76567 l -0.01215,-3.97419 h 0.631981 l -0.01215,3.95596 q 0,0.18838 0.09115,0.30384 0.09115,0.11545 0.212686,0.11545 0.139765,0 0.236993,-0.14584 0.103305,-0.15192 0.103305,-0.43752 v -2.21801 h 0.59552 v 2.21801 q 0,0.2856 0.09723,0.43752 0.103304,0.14584 0.243069,0.14584 0.121535,0 0.212686,-0.11545 0.09115,-0.11546 0.09115,-0.30384 l -0.01215,-3.95596 h 0.631981 l -0.01215,3.97419 q 0,0.54083 -0.212686,0.76567 -0.212686,0.21876 -0.796053,0.21876 z" />
      <path
         id="path1007"
         style="stroke-width:0.26821"
         d="M 38.194769,255.12894 H 37.70863 l 0.02431,-0.52868 1.324728,-1.95063 -1.349035,-1.98102 v -0.52259 h 0.437525 l 1.288268,1.93847 1.324729,-1.92632 0.364604,-0.006 0.01215,0.52868 -1.300422,1.95063 1.312575,1.98102 v 0.51652 H 40.698385 L 39.45873,253.233 Z" />
      <path
         id="path1009"
         style="stroke-width:0.26821"
         d="m 44.041796,252.02373 0.960124,-0.96013 v -0.87505 h 0.613751 l 0.0061,1.18497 -1.276115,1.27611 v 2.47931 l -0.595521,-0.006 v -2.47931 l -1.276115,-1.27611 0.0061,-1.18496 h 0.613751 v 0.87505 z" />
      <path
         id="path1011"
         style="stroke-width:0.26821"
         d="m 47.725508,254.50911 2.637304,0.006 v 0.61375 h -3.39082 v -0.57729 l 2.625151,-3.77973 -2.625151,0.006 v -0.62591 l 3.366513,0.006 v 0.6259 z" />
      <path
         id="path1013"
         style="stroke-width:0.26821"
         d="m 52.217426,250.77192 v 3.72504 h 0.27953 v -3.72504 z m 2.783146,-0.61983 v 0.61983 h -1.853405 v 3.72504 h 1.853405 v 0.63198 h -3.42728 v -4.97685 z" />
      <path
         id="path1015"
         style="stroke-width:0.26821"
         d="m 56.211052,250.15209 3.39082,4.4664 v 0.51045 H 59.21296 l -3.001908,-4.07749 z" />
      <path
         id="path1017"
         style="stroke-width:0.26821"
         d="m 63.595497,250.77192 h -0.27953 v 3.72504 h 0.27953 z m -2.783146,-0.61983 h 3.42728 v 4.97685 h -3.42728 v -0.63198 h 1.853405 v -3.72504 h -1.853405 z" />
      <path
         id="path1019"
         style="stroke-width:0.26821"
         d="m 67.139448,250.22501 0.844667,1.31258 -0.370681,0.18838 -0.473986,-0.73529 -0.461832,0.74744 -0.370681,-0.19445 z" />
      <path
         id="path1021"
         style="stroke-width:0.26821"
         d="m 69.887342,256.0526 v -0.61375 h 3.755425 v 0.61375 z" />
      <path
         id="path1023"
         style="stroke-width:0.26821"
         d="m 2.1682718,257.94855 0.9297409,0.61982 v 0.30384 H 2.7880991 l -0.9418944,-0.61375 v -0.30991 z" />
      <path
         id="path1025"
         style="stroke-width:0.26821"
         d="m 6.5082716,261.03553 q -0.4922158,0 -0.4922158,0.59552 0,0.32814 0.115458,0.48614 0.1215348,0.15192 0.3767578,0.15192 h 1.0330455 q 0.2916834,0 0.4618321,-0.158 0.1701486,-0.16407 0.1701486,-0.48006 v -0.59552 z m -0.4922158,-1.85948 h 1.5252613 q 0.7049016,0 0.9722781,0.27345 0.2734532,0.27345 0.2734532,0.97836 v 1.20319 q 0,0.72921 -0.2673765,1.00266 -0.2673765,0.27346 -0.9783548,0.27346 H 6.5082716 q -0.5894436,0 -0.8507434,-0.29169 -0.255223,-0.29776 -0.255223,-0.99051 0,-0.49221 0.2977602,-0.84466 0.2977601,-0.35245 0.8082062,-0.35245 h 1.6650262 q 0,-0.3403 -0.1458417,-0.48614 -0.139765,-0.14584 -0.486139,-0.14584 H 6.0160558 Z" />
      <path
         id="path1027"
         style="stroke-width:0.26821"
         d="m 12.185154,259.7898 -0.899358,0.0182 q -0.346374,0 -0.492215,0.13976 -0.139765,0.13369 -0.139765,0.49222 v 1.17889 q 0,0.35852 0.133688,0.50437 0.133688,0.14584 0.461832,0.14584 h 0.935818 q 0.352451,0 0.492216,-0.13977 0.139765,-0.14584 0.139765,-0.51044 v -1.17889 q 0,-0.35853 -0.139765,-0.50437 -0.133689,-0.14584 -0.492216,-0.14584 z m -2.175473,-1.85341 h 0.644135 v 1.23358 h 1.531338 q 0.680594,0 0.954048,0.29168 0.273453,0.29169 0.273453,0.97836 v 1.17889 q 0,0.71705 -0.2613,0.99051 -0.2613,0.27345 -0.966201,0.27345 h -0.954048 q -0.692748,0 -0.960125,-0.26738 -0.2613,-0.26737 -0.2613,-0.99658 z" />
      <path
         id="path1029"
         style="stroke-width:0.26821"
         d="m 17.868112,259.16997 v 0.61983 l -1.39765,0.0365 q -0.461832,0.0122 -0.759592,0.37068 -0.297761,0.35853 -0.297761,0.84467 0,0.48614 0.297761,0.85074 0.29776,0.3646 0.759592,0.37676 l 1.39765,0.0365 v 0.6016 h -1.39765 q -0.723132,0 -1.203194,-0.55299 -0.473986,-0.55906 -0.473986,-1.31257 0,-0.74744 0.480062,-1.29435 0.480063,-0.55298 1.197118,-0.55906 z" />
      <path
         id="path1031"
         style="stroke-width:0.26821"
         d="m 21.369523,259.80803 h -0.875051 q -0.340297,0 -0.467909,0.13976 -0.127611,0.13369 -0.127611,0.50437 v 1.19104 q 0,0.33422 0.133688,0.48007 0.133688,0.13976 0.461832,0.13976 h 0.875051 q 0.382834,0 0.528676,-0.13369 0.145841,-0.13976 0.145841,-0.48614 v -1.19104 q 0,-0.37675 -0.139764,-0.51044 -0.139765,-0.13369 -0.534753,-0.13369 z m 0.674517,-1.87771 h 0.619828 v 3.71288 q 0,0.74137 -0.2613,1.00267 -0.255223,0.2613 -1.033045,0.2613 h -0.875051 q -0.668441,0 -0.960124,-0.28561 -0.291684,-0.28561 -0.291684,-0.97836 v -1.19104 q 0,-0.66236 0.29776,-0.96012 0.303837,-0.30384 0.954048,-0.30384 h 1.549568 z" />
      <path
         id="path1033"
         style="stroke-width:0.26821"
         d="m 26.074125,259.76549 h -0.954048 q -0.315991,0 -0.449679,0.19446 -0.133688,0.18838 -0.133688,0.73528 h 2.132935 q 0,-0.57729 -0.115458,-0.75351 -0.115458,-0.17623 -0.480062,-0.17623 z m -0.954048,-0.61375 h 0.954048 q 0.686671,0 0.947971,0.32207 0.267376,0.32207 0.267376,1.22142 v 0.61983 H 24.51848 q 0,0.59552 0.115458,0.77782 0.121534,0.1823 0.486139,0.1823 h 2.169395 v 0.63199 h -2.169395 q -0.686672,0 -0.972278,-0.37069 -0.285607,-0.37068 -0.297761,-1.22142 v -0.61983 q 0.0061,-0.88112 0.291684,-1.20927 0.291683,-0.33422 0.978355,-0.33422 z" />
      <path
         id="path1035"
         style="stroke-width:0.26821"
         d="m 29.393232,262.90717 v -3.11737 h -0.583366 v -0.61983 h 0.583366 v -0.30991 q 0,-0.43753 0.249147,-0.67452 0.249146,-0.23699 0.710978,-0.23699 h 1.215348 v 0.60159 h -1.203194 q -0.188379,0 -0.267377,0.0851 -0.07292,0.079 -0.07292,0.2613 v 0.27345 h 0.947971 v 0.61983 h -0.947971 v 3.11737 z" />
      <path
         id="path1037"
         style="stroke-width:0.26821"
         d="m 35.264572,259.85057 -0.899357,-0.0182 q -0.346374,0 -0.492216,0.12761 -0.139765,0.12153 -0.139765,0.46183 v 1.15458 q 0,0.38283 0.139765,0.5226 0.139765,0.13369 0.492216,0.13369 l 0.899357,0.0365 q 0.376758,0 0.504369,-0.13369 0.127612,-0.13977 0.127612,-0.48614 v -1.2275 q 0,-0.31599 -0.145842,-0.4436 -0.145842,-0.12761 -0.486139,-0.12761 z m 1.263962,3.0566 q 0,0.8872 -0.27953,1.20927 -0.27953,0.32206 -0.984432,0.32206 h -1.823021 v -0.60159 h 1.823021 q 0.364604,0 0.498293,-0.18838 0.133688,-0.1823 0.133688,-0.74136 h -1.531338 q -0.686672,0 -0.984432,-0.27346 Q 33.0891,262.35418 33.0891,261.7222 v -1.30042 q 0,-0.64413 0.291683,-0.92366 0.29776,-0.27953 0.984432,-0.27953 h 2.163319 z" />
      <path
         id="path1039"
         style="stroke-width:0.26821"
         d="m 37.732937,257.94247 h 0.619827 v 1.92025 q 0,-0.19446 0.413218,-0.4436 0.413218,-0.24915 0.826436,-0.24915 h 0.583367 q 0.947971,0 0.947971,0.9662 v 2.74669 h -0.619827 v -2.74669 q 0,-0.20661 -0.06684,-0.27345 -0.06077,-0.0668 -0.2613,-0.0668 h -0.583367 q -0.492215,0 -0.868973,0.29776 -0.370681,0.29776 -0.370681,0.60767 v 2.18155 h -0.619827 z" />
      <path
         id="path1041"
         style="stroke-width:0.26821"
         d="m 43.689345,257.64471 h 0.935818 v 0.93582 h -0.935818 z m -0.631981,1.84125 h 1.543492 v 2.78922 h 0.91151 v 0.60768 h -2.455002 v -0.60768 h 0.905434 v -2.16939 h -0.905434 z" />
      <path
         id="path1043"
         style="stroke-width:0.26821"
         d="m 48.989469,257.92424 h 0.923664 v 0.92974 h -0.923664 z m 0.303837,1.90202 h -1.239654 v -0.63198 h 1.859481 v 4.02888 q 0,0.48613 -0.218762,0.7049 -0.218763,0.21876 -0.704902,0.21876 h -0.59552 q -0.516523,0 -0.747439,-0.21876 -0.224839,-0.21269 -0.224839,-0.7049 v -0.31599 h 0.631981 v 0.31599 q 0,0.2856 0.340297,0.2856 h 0.59552 q 0.145842,0 0.22484,-0.0851 0.079,-0.0851 0.079,-0.20053 z" />
      <path
         id="path1045"
         style="stroke-width:0.26821"
         d="m 54.976265,262.88286 h -0.966201 l -1.233578,-1.23358 h -0.571214 v 1.23358 h -0.607673 v -4.93431 h 0.607673 v 3.03837 l 1.810868,-1.79872 h 0.656288 v 0.35853 l -1.513108,1.51311 z" />
      <path
         id="path1047"
         style="stroke-width:0.26821"
         d="m 56.672884,257.94855 h 1.543491 v 4.32663 h 0.923664 v 0.63199 h -2.467155 v -0.63199 h 0.887204 v -3.70681 h -0.887204 z" />
      <path
         id="path1049"
         style="stroke-width:0.26821"
         d="m 60.976423,262.90717 v -3.72505 h 0.619827 v 0.60768 q 0,-0.33422 0.133689,-0.46791 0.139765,-0.13977 0.498292,-0.13977 h 1.847329 v 3.72505 h -0.631981 v -2.83176 q -0.358528,0 -0.480063,0.12761 -0.115458,0.12761 -0.115458,0.54083 v 2.16332 h -0.619827 v -2.83176 q -0.340297,0 -0.486139,0.15191 -0.145842,0.14585 -0.145842,0.51653 v 2.16332 z" />
      <path
         id="path1051"
         style="stroke-width:0.26821"
         d="m 68.227184,262.90717 v -3.09914 q 0,0 -0.935817,0 -0.22484,0 -0.510446,0.12761 -0.27953,0.12761 -0.498293,0.35245 -0.212686,0.21876 -0.212686,0.45576 v 2.16332 h -0.625904 v -3.71897 h 0.625904 v 0.86898 q 0,-0.316 0.419295,-0.58945 0.419295,-0.27953 0.80213,-0.27953 h 1.239654 q 0.170149,0 0.24307,0.079 0.07292,0.079 0.07292,0.24915 v 3.39082 z" />
      <path
         id="path1053"
         style="stroke-width:0.26821"
         d="m 72.263347,259.78372 h -0.941894 q -0.364605,0 -0.480063,0.12154 -0.115458,0.12153 -0.115458,0.49829 v 1.31257 q 0,0.316 0.133689,0.44968 0.139765,0.12761 0.461832,0.12761 h 0.941894 q 0.358528,0 0.486139,-0.12153 0.127612,-0.12761 0.127612,-0.45576 v -1.31257 q 0,-0.35853 -0.133689,-0.48614 -0.133688,-0.13369 -0.480062,-0.13369 z m -0.941894,-0.59552 h 0.941894 q 0.662365,0 0.935818,0.27345 0.27953,0.27346 0.27953,0.9419 v 1.31257 q 0,0.65629 -0.267377,0.92367 -0.261299,0.26738 -0.947971,0.26738 h -0.941894 q -0.686672,0 -0.978355,-0.26738 -0.291684,-0.26738 -0.291684,-0.92367 v -1.31257 q 0,-0.66237 0.285607,-0.93582 0.291684,-0.27953 0.984432,-0.27953 z" />
      <path
         id="path1055"
         style="stroke-width:0.26821"
         d="M 2.6118737,267.54979 H 2.326267 q -0.9236642,0 -0.9236642,0.96013 v 0.61983 q 0,0.47398 0.230916,0.69882 0.2309161,0.21876 0.6927482,0.21876 h 0.2856067 q 0.534753,0 0.7352853,-0.20661 0.2066091,-0.21268 0.2066091,-0.71097 v -0.61983 q 0,-0.96013 -0.9418944,-0.96013 z m -1.8412517,4.37526 v -4.97685 h 0.6319808 v 0.60159 q 0,-0.34029 0.2248393,-0.46791 0.230916,-0.13368 0.6988249,-0.13368 h 0.2856067 q 0.8932805,0 1.2275011,0.32814 0.3342206,0.32814 0.3342206,1.23358 v 0.61983 q 0,0.4679 -0.060767,0.74743 -0.060767,0.27953 -0.2369928,0.47399 -0.1762254,0.18838 -0.4739855,0.2613 -0.2977602,0.0729 -0.789976,0.0729 H 1.4026028 v 1.23966 z" />
      <path
         id="path1057"
         style="stroke-width:0.26821"
         d="m 6.9518735,267.54979 q -0.9418945,0 -0.9418945,0.96013 v 0.61983 q 0,0.49829 0.2005324,0.71097 0.2066091,0.20661 0.7413621,0.20661 h 0.2856066 q 0.4618322,0 0.6927482,-0.21876 0.2309161,-0.22484 0.2309161,-0.69882 v -0.61983 q 0,-0.96013 -0.9236643,-0.96013 z m 0,-0.60159 h 1.8412516 v 4.97685 H 8.1611444 v -1.23966 H 6.9518735 q -0.4922158,0 -0.789976,-0.0729 -0.2977602,-0.0729 -0.4739856,-0.2613 -0.1762254,-0.19446 -0.2369928,-0.47399 -0.060767,-0.27953 -0.060767,-0.74743 v -0.61983 q 0,-0.90544 0.3342206,-1.23358 0.3342206,-0.32814 1.2275012,-0.32814 z" />
      <path
         id="path1059"
         style="stroke-width:0.26821"
         d="m 10.14337,270.68539 v -3.71289 h 0.668441 v 0.90544 q 0,-0.57729 0.176225,-0.74136 0.182302,-0.16408 0.747439,-0.16408 h 0.571214 q 0.972278,0 0.972278,1.20927 H 12.71383 q 0,-0.34029 -0.09723,-0.48006 -0.09723,-0.13976 -0.309913,-0.13976 h -0.571214 q -0.455755,0 -0.692748,0.25522 -0.230916,0.25522 -0.230916,0.68059 v 2.18763 z" />
      <path
         id="path1061"
         style="stroke-width:0.26821"
         d="m 16.166625,267.54979 q -0.492216,0 -0.777823,0.158 -0.109381,0.0608 -0.109381,0.10938 0.01215,0.19446 0.121535,0.33422 0.115458,0.13977 0.273453,0.20053 0.157995,0.0608 0.273453,0.0851 0.121535,0.0243 0.218763,0.0243 0.431448,0.006 0.759592,0.0912 0.334221,0.0851 0.516523,0.2066 0.188379,0.11546 0.303837,0.27953 0.115458,0.16408 0.151918,0.30992 0.03646,0.14584 0.03646,0.30383 0,0.37069 -0.334221,0.63199 -0.27953,0.2066 -0.686671,0.29168 -0.407142,0.0851 -0.747439,0.0851 -0.394988,0 -0.631981,-0.0608 -0.230916,-0.0608 -0.686671,-0.27346 l 0.255223,-0.5469 q 0.407141,0.18838 0.571213,0.23091 0.170149,0.0425 0.492216,0.0425 0.322067,0 0.619827,-0.0668 0.29776,-0.0729 0.443602,-0.18838 0.09723,-0.0668 0.09723,-0.14585 0,-0.57121 -1.160657,-0.58336 -0.218763,0 -0.449679,-0.0547 -0.224839,-0.0608 -0.480062,-0.18838 -0.249146,-0.13369 -0.407141,-0.39499 -0.157996,-0.2613 -0.157996,-0.61375 0,-0.40106 0.413219,-0.63806 0.425371,-0.23699 1.081659,-0.23699 0.510446,0 0.832513,0.0608 0.322067,0.0547 0.753516,0.23091 l -0.24307,0.55906 q -0.364604,-0.15192 -0.625904,-0.19445 -0.255223,-0.0486 -0.717055,-0.0486 z" />
      <path
         id="path1063"
         style="stroke-width:0.26821"
         d="m 20.002256,266.04276 h 0.668442 v 0.89936 h 1.555645 v 0.6259 h -1.555645 v 2.1694 q 0,0.15192 0.06077,0.23699 0.06077,0.079 0.230916,0.079 h 0.650211 q 0.182302,0 0.236993,-0.0668 0.06077,-0.0729 0.06077,-0.24915 v -0.29168 h 0.583367 v 0.29168 q 0,0.53475 -0.212686,0.73528 -0.206609,0.19446 -0.668441,0.19446 h -0.650211 q -0.461832,0 -0.710978,-0.21269 -0.249147,-0.21268 -0.249147,-0.71705 v -2.1694 h -0.59552 v -0.6259 h 0.59552 z" />
      <path
         id="path1065"
         style="stroke-width:0.26821"
         d="m 25.42999,270.06556 q 0.364605,0 0.789976,-0.29168 0.425372,-0.29776 0.425372,-0.64413 v -2.16332 h 0.631981 v 3.71896 h -0.631981 v -0.86897 q 0,0.30991 -0.419295,0.58944 -0.419295,0.27953 -0.796053,0.27953 h -0.59552 q -0.972278,0 -0.972278,-0.94797 l 0.01215,-2.77099 h 0.619828 v 2.77099 q 0,0.32814 0.340297,0.32814 z" />
      <path
         id="path1067"
         style="stroke-width:0.26821"
         d="m 28.475645,266.95427 h 0.650211 v 0.93582 l 1.063429,1.81087 1.087736,-1.81087 v -0.93582 h 0.625904 v 1.23358 l -1.488801,2.49754 h -0.455755 l -1.482724,-2.49754 z" />
      <path
         id="path1069"
         style="stroke-width:0.26821"
         d="m 33.259249,266.96643 h 0.619827 v 2.72238 q 0,0.35245 0.273453,0.35245 h 0.346374 v -1.8291 h 0.613751 v 1.8291 h 0.31599 q 0.194456,0 0.2613,-0.079 0.06684,-0.079 0.06684,-0.27345 v -2.72238 h 0.601597 v 2.72238 q 0,0.51044 -0.224839,0.75351 -0.218763,0.24307 -0.704902,0.24307 h -1.276115 q -0.425372,0 -0.662364,-0.25522 -0.230916,-0.25523 -0.230916,-0.74136 z" />
      <path
         id="path1071"
         style="stroke-width:0.26821"
         d="m 39.42227,269.29989 -1.288269,1.3855 H 37.70863 v -0.71098 l 1.19104,-1.18496 -1.19104,-1.22143 v -0.63805 h 0.425371 l 1.288269,1.36726 1.336882,-1.36726 h 0.388911 v 0.60159 l -1.263961,1.25789 1.263961,1.1485 v 0.74744 h -0.388911 z" />
      <path
         id="path1073"
         style="stroke-width:0.26821"
         d="m 43.28828,271.90681 -0.947971,-0.006 v -0.59552 h 0.947971 q 0.079,0 0.133688,-0.0243 0.06077,-0.0182 0.09723,-0.079 0.04254,-0.0547 0.06077,-0.0972 0.02431,-0.0425 0.05469,-0.13977 0.03646,-0.0912 0.05469,-0.13369 l 0.206609,-0.41929 -1.555645,-2.30916 v -1.13635 h 0.680595 v 0.91151 l 1.215347,1.85948 0.911511,-1.85948 v -0.91151 h 0.607674 v 1.13635 L 44.44286,270.813 q -0.08507,0.17015 -0.188378,0.40714 -0.09723,0.237 -0.145842,0.32207 -0.04861,0.0911 -0.151919,0.19446 -0.103304,0.10938 -0.261299,0.13976 -0.151919,0.0304 -0.407142,0.0304 z" />
      <path
         id="path1075"
         style="stroke-width:0.26821"
         d="m 46.953762,266.9482 h 3.40905 v 0.60159 l -2.497539,2.49754 h 2.515769 v 0.63806 h -3.42728 v -0.67452 l 2.55223,-2.42462 h -2.55223 z" />
      <path
         id="path1077"
         style="stroke-width:0.26821"
         d="m 52.989172,265.70854 h 1.859482 v 0.61983 h -1.239655 v 1.54957 h -0.31599 v 0.63198 h 0.31599 v 1.55564 h 1.239655 v 0.61983 h -1.859482 v -2.17547 H 51.72521 v -0.63198 h 1.263962 z" />
      <path
         id="path1079"
         style="stroke-width:0.26821"
         d="m 57.608701,265.70247 h 0.595521 v 4.99507 h -0.595521 z" />
      <path
         id="path1081"
         style="stroke-width:0.26821"
         d="m 62.823751,265.70854 v 2.1694 h 1.263962 v 0.63198 h -1.263962 v 2.17547 H 60.96427 v -0.61983 h 1.239654 v -1.55564 h 0.315991 v -0.63198 h -0.315991 v -1.54957 H 60.96427 v -0.61983 z" />
      <path
         id="path1083"
         style="stroke-width:0.26821"
         d="M 65.942331,268.82591 V 268.2 h 2.400311 v 0.62591 z" />
    </g>
  </g>
</svg>
