<?xml version="1.0" encoding="UTF-8" standalone="no"?>
<svg
   xmlns:dc="http://purl.org/dc/elements/1.1/"
   xmlns:cc="http://creativecommons.org/ns#"
   xmlns:rdf="http://www.w3.org/1999/02/22-rdf-syntax-ns#"
   xmlns:svg="http://www.w3.org/2000/svg"
   xmlns="http://www.w3.org/2000/svg"
   id="svg8"
   version="1.1"
   viewBox="0 0 67.733332 67.733335"
   height="256"
   width="256">
  <defs
     id="defs2">
    <rect
       id="rect1129"
       height="27.373104"
       width="12.884066"
       y="336.85492"
       x="18.697766" />
  </defs>
  <metadata
     id="metadata5">
    <rdf:RDF>
      <cc:Work
         rdf:about="">
        <dc:format>image/svg+xml</dc:format>
        <dc:type
           rdf:resource="http://purl.org/dc/dcmitype/StillImage" />
        <dc:title></dc:title>
      </cc:Work>
    </rdf:RDF>
  </metadata>
  <g
     transform="translate(0,-229.26665)"
     id="layer1">
    <g
       style="font-style:normal;font-variant:normal;font-weight:normal;font-stretch:normal;font-size:6.40002px;line-height:1.15;font-family:Armagetronad;-inkscape-font-specification:'Armagetronad, Normal';font-variant-ligatures:normal;font-variant-caps:normal;font-variant-numeric:normal;font-feature-settings:normal;text-align:start;letter-spacing:0.617778px;word-spacing:0px;writing-mode:lr-tb;text-anchor:start;fill:#ffffff;fill-opacity:1;stroke:none;stroke-width:0.27586"
       id="text817"
       transform="scale(0.87305028,1.1454094)"
       aria-label="________________
________________
_¡¢£¤¥¦§¨©ª«­­­¬-­®¯
°±²³´µ¶·¸¹º»¼½¾¿
">
      <path
         id="path1515"
         style="stroke-width:0.27586"
         d="m 0.6170849,207.25313 v -0.63125 H 4.479597 v 0.63125 z" />
      <path
         id="path1517"
         style="stroke-width:0.27586"
         d="m 5.4223761,207.25313 v -0.63125 h 3.8625121 v 0.63125 z" />
      <path
         id="path1519"
         style="stroke-width:0.27586"
         d="m 10.227667,207.25313 v -0.63125 h 3.862512 v 0.63125 z" />
      <path
         id="path1521"
         style="stroke-width:0.27586"
         d="m 15.032959,207.25313 v -0.63125 h 3.862513 v 0.63125 z" />
      <path
         id="path1523"
         style="stroke-width:0.27586"
         d="m 19.83825,207.25313 v -0.63125 h 3.862512 v 0.63125 z" />
      <path
         id="path1525"
         style="stroke-width:0.27586"
         d="m 24.643542,207.25313 v -0.63125 h 3.862512 v 0.63125 z" />
      <path
         id="path1527"
         style="stroke-width:0.27586"
         d="m 29.448834,207.25313 v -0.63125 h 3.862512 v 0.63125 z" />
      <path
         id="path1529"
         style="stroke-width:0.27586"
         d="m 34.254124,207.25313 v -0.63125 h 3.862512 v 0.63125 z" />
      <path
         id="path1531"
         style="stroke-width:0.27586"
         d="m 39.059414,207.25313 v -0.63125 h 3.862512 v 0.63125 z" />
      <path
         id="path1533"
         style="stroke-width:0.27586"
         d="m 43.864708,207.25313 v -0.63125 h 3.862512 v 0.63125 z" />
      <path
         id="path1535"
         style="stroke-width:0.27586"
         d="m 48.669999,207.25313 v -0.63125 h 3.862512 v 0.63125 z" />
      <path
         id="path1537"
         style="stroke-width:0.27586"
         d="m 53.475289,207.25313 v -0.63125 h 3.862512 v 0.63125 z" />
      <path
         id="path1539"
         style="stroke-width:0.27586"
         d="m 58.280583,207.25313 v -0.63125 h 3.862512 v 0.63125 z" />
      <path
         id="path1541"
         style="stroke-width:0.27586"
         d="m 63.085873,207.25313 v -0.63125 h 3.862512 v 0.63125 z" />
      <path
         id="path1543"
         style="stroke-width:0.27586"
         d="m 67.891163,207.25313 v -0.63125 h 3.862512 v 0.63125 z" />
      <path
         id="path1545"
         style="stroke-width:0.27586"
         d="m 72.696453,207.25313 v -0.63125 h 3.862513 v 0.63125 z" />
      <path
         id="path1547"
         style="stroke-width:0.27586"
         d="m 0.6170849,214.61316 v -0.63125 H 4.479597 v 0.63125 z" />
      <path
         id="path1549"
         style="stroke-width:0.27586"
         d="m 5.4223761,214.61316 v -0.63125 h 3.8625121 v 0.63125 z" />
      <path
         id="path1551"
         style="stroke-width:0.27586"
         d="m 10.227667,214.61316 v -0.63125 h 3.862512 v 0.63125 z" />
      <path
         id="path1553"
         style="stroke-width:0.27586"
         d="m 15.032959,214.61316 v -0.63125 h 3.862513 v 0.63125 z" />
      <path
         id="path1555"
         style="stroke-width:0.27586"
         d="m 19.83825,214.61316 v -0.63125 h 3.862512 v 0.63125 z" />
      <path
         id="path1557"
         style="stroke-width:0.27586"
         d="m 24.643542,214.61316 v -0.63125 h 3.862512 v 0.63125 z" />
      <path
         id="path1559"
         style="stroke-width:0.27586"
         d="m 29.448834,214.61316 v -0.63125 h 3.862512 v 0.63125 z" />
      <path
         id="path1561"
         style="stroke-width:0.27586"
         d="m 34.254124,214.61316 v -0.63125 h 3.862512 v 0.63125 z" />
      <path
         id="path1563"
         style="stroke-width:0.27586"
         d="m 39.059414,214.61316 v -0.63125 h 3.862512 v 0.63125 z" />
      <path
         id="path1565"
         style="stroke-width:0.27586"
         d="m 43.864708,214.61316 v -0.63125 h 3.862512 v 0.63125 z" />
      <path
         id="path1567"
         style="stroke-width:0.27586"
         d="m 48.669999,214.61316 v -0.63125 h 3.862512 v 0.63125 z" />
      <path
         id="path1569"
         style="stroke-width:0.27586"
         d="m 53.475289,214.61316 v -0.63125 h 3.862512 v 0.63125 z" />
      <path
         id="path1571"
         style="stroke-width:0.27586"
         d="m 58.280583,214.61316 v -0.63125 h 3.862512 v 0.63125 z" />
      <path
         id="path1573"
         style="stroke-width:0.27586"
         d="m 63.085873,214.61316 v -0.63125 h 3.862512 v 0.63125 z" />
      <path
         id="path1575"
         style="stroke-width:0.27586"
         d="m 67.891163,214.61316 v -0.63125 h 3.862512 v 0.63125 z" />
      <path
         id="path1577"
         style="stroke-width:0.27586"
         d="m 72.696453,214.61316 v -0.63125 h 3.862513 v 0.63125 z" />
      <path
         id="path1579"
         style="stroke-width:0.27586"
         d="m 0.6170849,221.97318 v -0.63125 H 4.479597 v 0.63125 z" />
      <path
         id="path1581"
         style="stroke-width:0.27586"
         d="M 7.7723835,216.91691 H 6.9223808 v -1 h 0.8500027 z m 0.0125,4.08127 H 6.9473809 v -3.59376 q 0.1625005,0.10625 0.2125006,0.14375 0.05625,0.0375 0.1875006,0.15 0.1312504,0.1125 0.1812506,0.21875 0.05,0.10625 0.1250004,0.2875 0.075,0.175 0.1000003,0.4125 0.025,0.2375 0.025,0.54375 v 1.57501 q 0,0.25 0.00625,0.2625 z" />
      <path
         id="path1583"
         style="stroke-width:0.27586"
         d="m 13.752678,217.19817 v 0.6375 h -1.612505 q -0.425001,0 -0.668752,0.3875 -0.243751,0.38125 -0.243751,0.88125 0,0.50625 0.237501,0.89375 0.243751,0.38751 0.675002,0.38751 h 1.612505 v 0.6375 h -0.975003 v 0.6375 h -0.637502 v -0.6375 q -0.531251,0 -0.900003,-0.28125 -0.362501,-0.2875 -0.518751,-0.70626 -0.156251,-0.41875 -0.156251,-0.93125 0,-0.7875 0.412502,-1.34375 0.412501,-0.5625 1.162503,-0.5625 v -0.63751 h 0.637502 v 0.63751 z" />
      <path
         id="path1585"
         style="stroke-width:0.27586"
         d="m 16.314213,221.02318 q -0.425001,0 -0.618752,-0.15625 -0.1875,-0.15625 -0.1875,-0.50626 0,-0.2125 0.1,-0.4 0.100001,-0.19375 0.218751,-0.3 0.11875,-0.1125 0.218751,-0.25625 0.1,-0.15 0.1,-0.29375 h -0.637502 v -0.65625 h 0.637502 v -0.95625 q 0,-0.45001 0.268751,-0.70001 0.275001,-0.25 0.725002,-0.25 h 0.975003 v 0.63125 h -0.956253 q -0.193751,0 -0.275001,0.0688 -0.075,0.0625 -0.075,0.25 v 0.95625 h 0.650002 v 0.65625 h -0.650002 q 0,0.3125 -0.08125,0.53125 -0.075,0.21875 -0.168751,0.30625 -0.0875,0.0875 -0.16875,0.19375 -0.075,0.10625 -0.075,0.21875 h 1.481255 q 0.150001,0 0.256251,-0.0437 0.10625,-0.0438 0.206251,-0.125 0.1,-0.0813 0.15625,-0.10625 v 0.60001 q -0.03125,0.0375 -0.09375,0.0937 -0.05625,0.0563 -0.218751,0.15 -0.1625,0.0937 -0.306251,0.0937 z" />
      <path
         id="path1587"
         style="stroke-width:0.27586"
         d="m 21.750756,218.17317 q -0.106251,0 -0.175001,0.0875 -0.06875,0.0812 -0.06875,0.19375 0,0.11875 0.06875,0.2125 0.06875,0.0875 0.175001,0.0875 0.13125,0 0.225,-0.0875 0.09375,-0.0875 0.09375,-0.2125 0,-0.125 -0.09375,-0.2 -0.09375,-0.0813 -0.225,-0.0813 z m -0.525002,0 -0.412501,-0.4125 0.25625,-0.25625 0.400002,0.39375 q 0.1375,-0.1375 0.281251,-0.1375 0.14375,0 0.312501,0.13125 l 0.400001,-0.39375 0.256251,0.25625 -0.412502,0.4125 q 0.100001,0.1875 0.100001,0.33125 0,0.15 -0.09375,0.275 l 0.412502,0.4125 -0.256251,0.25625 -0.400001,-0.39375 q -0.168751,0.1 -0.318751,0.1 -0.143751,0 -0.275001,-0.10625 l -0.400002,0.39375 -0.25625,-0.25625 0.412501,-0.4125 q -0.1375,-0.1625 -0.1375,-0.31875 0,-0.14375 0.13125,-0.275 z" />
      <path
         id="path1589"
         style="stroke-width:0.27586"
         d="m 27.20605,221.02318 h -1.275004 v -0.35 h 0.325001 v -0.61876 h -1.275004 v -0.6625 h 1.275004 v -0.59375 h -1.275004 v -0.64375 h 0.950003 l -0.950003,-1.00001 v -1.23125 h 0.600002 v 0.9125 l 0.975003,0.99376 1.000003,-0.99376 v -0.9125 h 0.612502 v 1.23125 l -0.962503,1.00001 h 0.962503 v 0.64375 h -1.287504 v 0.59375 h 1.287504 v 0.6625 h -1.287504 v 0.61876 h 0.325001 z" />
      <path
         id="path1591"
         style="stroke-width:0.27586"
         d="m 31.073839,215.90441 h 0.612502 v 1.93751 h -0.612502 z m 0,3.19376 h 0.612502 v 1.93751 h -0.612502 z" />
      <path
         id="path1593"
         style="stroke-width:0.27586"
         d="m 36.466631,217.80442 h -0.600002 q -0.16875,0 -0.243751,0.0687 -0.06875,0.0688 -0.06875,0.2375 v 0.6125 q 0,0.21875 0.0625,0.29375 0.0625,0.0687 0.250001,0.0687 h 0.600002 q 0.193751,0 0.262501,-0.075 0.075,-0.0813 0.075,-0.2875 v -0.6125 q 0,-0.15625 -0.075,-0.23125 -0.06875,-0.075 -0.262501,-0.075 z m -0.600002,1.60625 q -0.331251,0 -0.487501,-0.1625 -0.150001,-0.16875 -0.150001,-0.525 v -1.83126 q 0,-0.58125 0.137501,-0.78125 0.14375,-0.2 0.500001,-0.2 h 1.275004 v 0.325 h -1.275004 q -0.1875,0 -0.256251,0.125 -0.06875,0.125 -0.06875,0.525 v 0.62501 h 0.925003 q 0.368751,0 0.512502,0.1375 0.15,0.1375 0.15,0.4625 v 1.91875 q 0,0.58126 -0.15625,0.78126 -0.150001,0.2 -0.506252,0.2 h -1.237504 v -0.325 h 1.237504 q 0.187501,0 0.262501,-0.125 0.075,-0.13125 0.075,-0.52501 v -0.625 z" />
      <path
         id="path1595"
         style="stroke-width:0.27586"
         d="m 41.296921,215.91066 v -0.63125 h 0.643752 v 0.63125 z m -1.256254,0 v -0.63125 h 0.643752 v 0.63125 z" />
      <path
         id="path1597"
         style="stroke-width:0.27586"
         d="m 46.189716,218.41067 v -0.15625 h 0.312501 v 0.15625 q 0,0.075 -0.0063,0.11875 -0.05,0.225 -0.256251,0.33125 -0.150001,0.075 -0.431252,0.075 -0.737502,0 -0.737502,-1.15625 0,-0.1875 0.025,-0.35 0.03125,-0.16875 0.09375,-0.33126 0.06875,-0.16875 0.20625,-0.2625 0.143751,-0.1 0.343751,-0.1 0.256251,0 0.362501,0.0125 0.368752,0.05 0.400002,0.40625 v 0.0875 0.1625 h -0.312501 v -0.1625 l -0.0062,-0.0625 q -0.0063,-0.0437 -0.0125,-0.0562 0,-0.0188 -0.025,-0.0375 -0.025,-0.0187 -0.08125,-0.025 l -0.325001,-0.006 q -0.356251,0 -0.356251,0.72501 0.0063,0.40625 0.09375,0.625 0.09375,0.21875 0.331251,0.21875 0.225001,0 0.293751,-0.0437 0.0875,-0.05 0.0875,-0.16875 z m 1.568755,-0.58125 q 0,0.825 -0.593752,1.375 -0.587502,0.55 -1.368755,0.55 -0.850002,0 -1.406254,-0.56875 -0.556252,-0.575 -0.556252,-1.35625 0,-0.83126 0.593752,-1.37501 0.593752,-0.55 1.368754,-0.55 0.850003,0 1.406255,0.575 0.556252,0.56875 0.556252,1.35001 z m -1.962507,-1.61251 q -0.656252,0 -1.150003,0.4625 -0.493752,0.4625 -0.493752,1.15001 0,0.64375 0.462502,1.13125 0.468751,0.48125 1.181253,0.48125 0.662502,0 1.150004,-0.45625 0.493752,-0.4625 0.493752,-1.15625 0,-0.64375 -0.468752,-1.12501 -0.462501,-0.4875 -1.175004,-0.4875 z" />
      <path
         id="path1599"
         style="stroke-width:0.27586"
         d="m 50.845005,217.20442 h -0.500001 q -0.137501,0 -0.181251,0.0437 -0.04375,0.0375 -0.04375,0.15 v 0.2 q 0,0.23125 0.225001,0.23125 h 0.500001 q 0.225001,0 0.225001,-0.23125 v -0.2 q 0,-0.0812 -0.05625,-0.1375 -0.05625,-0.0563 -0.168751,-0.0563 z m -1.037503,-0.65626 v -0.1 q 0,-0.28125 0.10625,-0.4 0.106251,-0.11875 0.431252,-0.11875 h 0.500001 q 0.337501,0 0.443752,0.1 0.10625,0.1 0.10625,0.41875 v 1.15001 q 0,0.325 -0.1125,0.44375 -0.112501,0.11875 -0.437502,0.11875 h -0.500001 q -0.312501,0 -0.425002,-0.125 -0.1125,-0.13125 -0.1125,-0.4375 v -0.2 q 0,-0.32501 0.10625,-0.43126 0.106251,-0.10625 0.431252,-0.10625 h 0.725002 v -0.4125 q 0,-0.13125 -0.05,-0.175 -0.05,-0.0437 -0.175001,-0.0437 h -0.500001 q -0.131251,0 -0.181251,0.05 -0.04375,0.0437 -0.04375,0.16875 v 0.1 z m 0,1.91251 h 1.587505 v 0.325 h -1.587505 z" />
      <path
         id="path1601"
         style="stroke-width:0.27586"
         d="m 54.337792,218.58567 v 0.125 l 1.356254,1.3625 -0.331251,0.33751 -1.500005,-1.50001 v -0.525 l 1.500005,-1.51251 0.337501,0.33751 z m 1.250003,0 v 0.125 l 1.356255,1.3625 -0.331251,0.33751 -1.500005,-1.50001 v -0.525 l 1.500005,-1.51251 0.337501,0.33751 z" />
      <path
         id="path1603"
         style="stroke-width:0.27586"
         d="m 58.443083,219.09817 v -0.63125 h 3.537511 v 1.2625 h -0.650002 v -0.63125 z" />
      <path
         id="path1605"
         style="stroke-width:0.27586"
         d="m 63.779625,219.11067 v -0.64375 h 2.468758 v 0.64375 z" />
      <path
         id="path1607"
         style="stroke-width:0.27586"
         d="m 72.4027,217.82942 q 0,0.825 -0.593751,1.375 -0.587502,0.55 -1.368755,0.55 -0.850002,0 -1.406254,-0.56875 -0.556252,-0.575 -0.556252,-1.35625 0,-0.83126 0.593752,-1.37501 0.593752,-0.55 1.368754,-0.55 0.850003,0 1.406255,0.575 0.556251,0.56875 0.556251,1.35001 z m -1.962506,-1.61251 q -0.656252,0 -1.150003,0.4625 -0.493752,0.4625 -0.493752,1.15001 0,0.64375 0.462502,1.13125 0.468751,0.48125 1.181253,0.48125 0.662502,0 1.150004,-0.45625 0.493751,-0.4625 0.493751,-1.15625 0,-0.64375 -0.468751,-1.12501 -0.462501,-0.4875 -1.175004,-0.4875 z m -0.662502,0.56875 h 0.737503 q 0.418751,0 0.550001,0.14375 0.137501,0.14375 0.137501,0.51251 v 1.45 h -0.337501 v -0.3375 q 0,-0.23125 -0.0625,-0.3 -0.0625,-0.075 -0.2875,-0.075 h -0.356252 v 0.7125 h -0.381251 z m 0.737503,0.35625 h -0.356252 v 0.70001 h 0.706253 v -0.4 q 0,-0.16875 -0.075,-0.23125 -0.06875,-0.0688 -0.275,-0.0688 z" />
      <path
         id="path1609"
         style="stroke-width:0.27586"
         d="m 73.482987,216.54816 v -0.64375 h 3.525011 v 0.64375 z" />
      <path
         id="path1611"
         style="stroke-width:0.27586"
         d="M 2.8045918,223.57693 H 2.23584 q -0.1687505,0 -0.2437508,0.0688 -0.075,0.0687 -0.075,0.2375 v 0.6125 q 0,0.2125 0.0625,0.2875 0.06875,0.075 0.2562508,0.075 h 0.5687518 q 0.1937506,0 0.2750008,-0.0813 0.0875,-0.0812 0.0875,-0.28125 v -0.6125 q 0,-0.30626 -0.3625011,-0.30626 z m -1.2000038,0.30626 q 0,-0.35001 0.1312504,-0.46876 0.1312504,-0.125 0.5000016,-0.125 h 0.5687518 q 0.3750012,0 0.5312516,0.1375 0.1562505,0.13125 0.1562505,0.45626 v 0.6125 q 0,0.39375 -0.1500004,0.54375 -0.1437505,0.14375 -0.5375017,0.14375 H 2.23584 q -0.325001,0 -0.4812515,-0.1625 -0.1500005,-0.16875 -0.1500005,-0.525 z" />
      <path
         id="path1613"
         style="stroke-width:0.27586"
         d="m 6.2473787,225.47694 v -0.6375 h 1.293754 v -1.25001 h 0.631252 v 1.25626 h 1.262504 v 0.63125 h -1.262504 v 1.29375 h -0.631252 v -1.29375 z m 0.2000006,2.53126 v -0.64375 h 2.4687578 v 0.64375 z" />
      <path
         id="path1615"
         style="stroke-width:0.27586"
         d="m 11.352671,224.69569 q 0,-0.76875 0.787502,-0.76875 0.300001,0 0.393752,-0.10625 0.1,-0.10625 0.1,-0.36251 0,-0.325 -0.106251,-0.4125 -0.10625,-0.0875 -0.387501,-0.0875 h -0.768752 v -0.3125 h 0.768752 q 0.143751,0 0.237501,0.0125 0.09375,0.0125 0.212501,0.0625 0.125,0.0438 0.19375,0.125 0.075,0.0813 0.125001,0.2375 0.05,0.15625 0.05,0.375 0,0.15626 -0.025,0.27501 -0.025,0.1125 -0.100001,0.2375 -0.075,0.125 -0.25,0.2 -0.175001,0.0687 -0.443752,0.0687 -0.250001,0 -0.368751,0.0875 -0.1125,0.0875 -0.1125,0.36875 0,0.3625 0.0625,0.43125 0.06875,0.0625 0.418751,0.0625 h 0.825003 v 0.3125 h -1.612505 z" />
      <path
         id="path1617"
         style="stroke-width:0.27586"
         d="m 17.745468,223.08943 v 0.70626 q 0,0.18125 -0.0875,0.26875 0.0875,0.11875 0.0875,0.2625 v 0.74375 q 0,0.125 -0.0375,0.2125 -0.0375,0.0813 -0.100001,0.13125 -0.05625,0.0437 -0.16875,0.0687 -0.10625,0.0187 -0.206251,0.025 -0.09375,0.006 -0.262501,0.006 h -0.806252 v -0.3125 h 0.806252 q 0.331252,0 0.400002,-0.0188 0.06875,-0.0187 0.06875,-0.11875 l -0.0062,-0.71875 q 0,-0.0812 -0.075,-0.1 -0.06875,-0.025 -0.350001,-0.025 h -0.0375 -0.493751 v -0.3125 h 0.493751 0.0375 q 0.1875,0 0.28125,-0.0125 0.100001,-0.0188 0.118751,-0.0437 0.025,-0.025 0.025,-0.0625 v -0.70001 q 0,-0.075 -0.09375,-0.1 -0.0875,-0.0312 -0.368752,-0.0312 h -0.806252 v -0.3125 h 0.818753 q 0.762502,0 0.762502,0.44375 z" />
      <path
         id="path1619"
         style="stroke-width:0.27586"
         d="m 22.082007,223.28318 h 0.331251 v 0.31876 l -0.968753,0.63125 h -0.318751 v -0.3125 z" />
      <path
         id="path1621"
         style="stroke-width:0.27586"
         d="m 24.656042,224.87069 h 1.268754 v 2.22501 q 0,0.2 0.0625,0.25625 0.0625,0.0563 0.256251,0.0563 h 0.668752 q 0.16875,0 0.237501,-0.075 0.06875,-0.075 0.06875,-0.2375 v -1.59376 h -0.662502 v -0.63125 h 1.287504 v 2.70626 q 0,0.025 0.0875,0.0625 0.09375,0.0312 0.250001,0.0625 0.15625,0.0312 0.312501,0.0312 v 0.63125 q -0.425001,0 -0.843753,-0.1125 -0.418751,-0.1125 -0.418751,-0.20625 h -0.987503 q -0.181251,0 -0.250001,-0.0688 -0.06875,-0.0687 -0.06875,-0.24375 v 1.925 h -0.643752 v -4.15626 h -0.625002 z" />
      <path
         id="path1623"
         style="stroke-width:0.27586"
         d="m 31.061339,225.49569 v -1.575 q -0.281251,0 -0.462502,0.21875 -0.175,0.2125 -0.175,0.55625 0,0.4125 0.14375,0.60625 0.143751,0.19375 0.493752,0.19375 z m 0.950003,-1.575 h -0.300001 v 3.86876 l 0.300001,-0.006 z m -1.262504,4.46251 v -0.6 h 0.312501 v -1.65001 q -0.656252,0 -0.975003,-0.31875 -0.312501,-0.325 -0.312501,-1.11875 0,-1.43126 1.275004,-1.43126 h 1.937506 v 0.65626 h -0.337501 v 3.86251 h 0.337501 v 0.6 z" />
      <path
         id="path1625"
         style="stroke-width:0.27586"
         d="m 36.516631,226.15819 h 0.643752 v 0.65001 h -0.643752 z" />
      <path
         id="path1627"
         style="stroke-width:0.27586"
         d="m 41.884423,229.2332 z m -0.412501,-0.225 q 0,0.38125 -0.125001,0.51875 -0.125,0.1375 -0.525001,0.1375 h -0.312501 v -0.325 h 0.312501 q 0.312501,0 0.312501,-0.325 0,-0.1375 -0.0875,-0.225 -0.08125,-0.0812 -0.225001,-0.0812 v -0.325 q 0.406251,0 0.525001,0.125 0.125001,0.125 0.125001,0.5 z" />
      <path
         id="path1629"
         style="stroke-width:0.27586"
         d="m 44.989712,222.63943 h 0.962503 v 2.53751 h 0.337501 v -0.63125 h 0.312501 v 0.9625 h -1.612505 v -0.33125 h 0.662502 v -2.21251 h -0.662502 z" />
      <path
         id="path1631"
         style="stroke-width:0.27586"
         d="m 49.2575,225.50819 h 1.912506 v 0.325 H 49.2575 Z m 1.193754,-1.93126 h -0.568752 q -0.16875,0 -0.24375,0.0688 -0.075,0.0687 -0.075,0.2375 v 0.6125 q 0,0.2125 0.0625,0.2875 0.06875,0.075 0.25625,0.075 h 0.568752 q 0.193751,0 0.275001,-0.0813 0.0875,-0.0812 0.0875,-0.28125 v -0.6125 q 0,-0.30626 -0.362501,-0.30626 z m -1.200004,0.30626 q 0,-0.35001 0.131251,-0.46876 0.13125,-0.125 0.500001,-0.125 h 0.568752 q 0.375001,0 0.531252,0.1375 0.15625,0.13125 0.15625,0.45626 v 0.6125 q 0,0.39375 -0.15,0.54375 -0.143751,0.14375 -0.537502,0.14375 h -0.568752 q -0.325001,0 -0.481251,-0.1625 -0.150001,-0.16875 -0.150001,-0.525 z" />
      <path
         id="path1633"
         style="stroke-width:0.27586"
         d="m 56.475298,225.94569 -1.362504,-1.375 0.337501,-0.3375 1.500005,1.5125 v 0.525 l -1.500005,1.50001 -0.331251,-0.3375 1.356254,-1.36251 z m -1.250004,0 -1.362504,-1.375 0.337501,-0.3375 1.500005,1.5125 v 0.525 l -1.500005,1.50001 -0.331251,-0.3375 1.356254,-1.36251 z" />
      <path
         id="path1635"
         style="stroke-width:0.27586"
         d="m 58.286833,227.73945 3.850012,-3.85001 v 0.65 l -3.850012,3.85001 z m 2.231257,-1.20626 h 0.331251 v 1.42501 h 0.668752 v -1.1 h 0.350001 v 1.1 h 0.150001 v 0.33125 h -0.150001 v 0.80625 h -0.350001 v -0.80625 H 60.51809 Z m -2.012506,-3.98126 h 1.050003 v 2.49376 h 0.350001 v -0.88125 h 0.356251 v 1.2625 h -1.756255 v -0.38125 h 0.700002 v -2.14376 h -0.700002 z" />
      <path
         id="path1637"
         style="stroke-width:0.27586"
         d="m 63.060873,227.73945 3.850012,-3.85001 v 0.65 l -3.850012,3.85001 z m 2.293757,0.6 q 0,-0.6875 0.793753,-0.6875 0.293751,0 0.393751,-0.0937 0.1,-0.0937 0.1,-0.31875 0,-0.29375 -0.10625,-0.36875 -0.10625,-0.0813 -0.387501,-0.0813 H 65.37338 v -0.27501 h 0.775003 q 0.14375,0 0.2375,0.0125 0.09375,0.006 0.212501,0.05 0.125,0.0375 0.193751,0.1125 0.075,0.075 0.125,0.21251 0.05,0.1375 0.05,0.3375 0,0.1375 -0.025,0.2375 -0.025,0.1 -0.1,0.21875 -0.075,0.1125 -0.256251,0.175 -0.175,0.0625 -0.437501,0.0625 -0.256251,0 -0.375002,0.0813 -0.1125,0.075 -0.1125,0.325 0,0.125 0,0.18125 0.0062,0.0625 0.025,0.11875 0.025,0.0625 0.04375,0.0812 0.01875,0.0188 0.0875,0.0375 0.06875,0.0188 0.125,0.0188 0.0625,0 0.206251,0 h 0.825002 v 0.28125 H 65.35463 Z m -2.131257,-5.75002 h 1.050004 v 2.49376 h 0.350001 v -0.88125 h 0.356251 v 1.2625 h -1.756256 v -0.38125 h 0.700003 v -2.14376 h -0.700003 z" />
      <path
         id="path1639"
         style="stroke-width:0.27586"
         d="m 67.897413,227.73945 3.850012,-3.85001 v 0.65 l -3.850012,3.85001 z m 1.900006,-4.55627 v 0.70626 q 0,0.18125 -0.0875,0.26875 0.0875,0.11875 0.0875,0.2625 v 0.74375 q 0,0.125 -0.0375,0.2125 -0.0375,0.0813 -0.1,0.13125 -0.05625,0.0437 -0.168751,0.0687 -0.10625,0.0187 -0.20625,0.025 -0.09375,0.006 -0.262501,0.006 h -0.806253 v -0.3125 h 0.806253 q 0.331251,0 0.400001,-0.0188 0.06875,-0.0187 0.06875,-0.11875 l -0.0063,-0.71875 q 0,-0.0812 -0.075,-0.1 -0.06875,-0.025 -0.350001,-0.025 h -0.0375 -0.493752 v -0.3125 h 0.493752 0.0375 q 0.187501,0 0.281251,-0.0125 0.1,-0.0188 0.11875,-0.0437 0.025,-0.025 0.025,-0.0625 v -0.70001 q 0,-0.075 -0.09375,-0.1 -0.0875,-0.0312 -0.368751,-0.0312 h -0.806253 v -0.3125 h 0.818753 q 0.762502,0 0.762502,0.44375 z m 0.350001,3.14376 h 0.331251 v 1.42501 h 0.668753 v -1.10001 h 0.350001 v 1.10001 h 0.15 v 0.33125 h -0.15 v 0.80625 H 71.147424 V 228.0832 H 70.14742 Z" />
      <path
         id="path1641"
         style="stroke-width:0.27586"
         d="m 75.783963,224.22069 v 0.60625 q 0,0.2125 -0.075,0.3875 -0.06875,0.175 -0.218751,0.31875 -0.14375,0.14375 -0.281251,0.25 -0.1375,0.1 -0.356251,0.24375 -0.2125,0.14375 -0.331251,0.2375 -0.09375,0.075 -0.400001,0.3 -0.300001,0.22501 -0.437501,0.35626 -0.137501,0.125 -0.137501,0.2125 0,0.59375 0.237501,0.59375 0.06875,0 0.1375,-0.0125 0.075,-0.0188 0.156251,-0.0563 0.0875,-0.0437 0.15,-0.075 0.06875,-0.0375 0.168751,-0.10625 0.1,-0.075 0.15625,-0.1125 0.05625,-0.0438 0.175001,-0.13125 0.11875,-0.0875 0.16875,-0.125 l 1.037504,-0.75001 0.412501,0.42501 -1.150004,0.83125 q -0.618752,0.45 -0.906252,0.6125 -0.281251,0.15625 -0.506252,0.15625 -0.875003,0 -0.875003,-1.25 0,-0.15625 0.0625,-0.29375 0.0625,-0.14376 0.206251,-0.28126 0.14375,-0.1375 0.262501,-0.225 0.11875,-0.0937 0.337501,-0.24375 0.225001,-0.15625 0.331251,-0.2375 0.668752,-0.5 0.843753,-0.68125 0.19375,-0.20625 0.19375,-0.34375 v -0.60625 z m 0,-0.3375 h -0.637502 v -0.63751 h 0.637502 z" />
    </g>
    <g
       style="font-style:normal;font-variant:normal;font-weight:normal;font-stretch:normal;font-size:5.87465px;line-height:1.32;font-family:Armagetronad;-inkscape-font-specification:'Armagetronad, Normal';font-variant-ligatures:normal;font-variant-caps:normal;font-variant-numeric:normal;font-feature-settings:normal;text-align:start;letter-spacing:0.567065px;word-spacing:0px;writing-mode:lr-tb;text-anchor:start;fill:#ffffff;fill-opacity:1;stroke:none;stroke-width:0.253215"
       id="text817-6"
       transform="scale(0.95112882,1.0513823)"
       aria-label="
^ 
">
      <path
         id="path1512"
         style="line-height:1.32;stroke-width:0.253215"
         d="m 11.222839,250.15797 0.797438,1.23918 -0.349955,0.17785 -0.447483,-0.69418 -0.436009,0.70565 -0.349955,-0.18358 z" />
    </g>
    <g
       style="font-style:normal;font-variant:normal;font-weight:normal;font-stretch:normal;font-size:6.12003px;line-height:1.25;font-family:Armagetronad;-inkscape-font-specification:'Armagetronad, Normal';font-variant-ligatures:normal;font-variant-caps:normal;font-variant-numeric:normal;font-feature-settings:normal;text-align:start;letter-spacing:0.554203px;word-spacing:0px;writing-mode:lr-tb;text-anchor:start;fill:#ffffff;fill-opacity:1;stroke:none;stroke-width:0.26379"
       id="text817-60"
       transform="scale(0.92328065,1.0830943)" />
    <g
       style="font-style:normal;font-weight:normal;font-size:2.37612px;line-height:1.25;font-family:sans-serif;letter-spacing:0px;word-spacing:0px;fill:#ffffff;fill-opacity:1;stroke:none;stroke-width:0.059403"
       id="text957"
       transform="scale(0.94895793,1.0537875)" />
    <g
       style="font-style:normal;font-variant:normal;font-weight:normal;font-stretch:normal;font-size:6.22258px;line-height:1.25;font-family:Armagetronad;-inkscape-font-specification:'Armagetronad, Normal';font-variant-ligatures:normal;font-variant-caps:normal;font-variant-numeric:normal;font-feature-settings:normal;text-align:start;letter-spacing:0.548116px;word-spacing:0px;writing-mode:lr-tb;text-anchor:start;fill:#ffffff;fill-opacity:1;stroke:none;stroke-width:0.268211"
       id="text817-1"
       transform="scale(0.91658734,1.0910035)"
       aria-label="
       ×Ø     Þß
àáâãäåæçèéêëìíîï
ðñòóôõö÷øùúûüýþÿ">
      <path
         id="path1437"
         style="stroke-width:0.268211"
         d="m 33.253176,255.10119 h -0.315991 v -0.30383 l 1.567799,-1.5678 -1.567799,-1.5678 v -0.58337 l 1.871636,1.87164 1.871635,-1.87771 v 0.58336 l -1.555645,1.57388 1.555645,1.56172 v 0.30384 l -0.31599,0.006 -1.555645,-1.54957 z" />
      <path
         id="path1439"
         style="stroke-width:0.268211"
         d="m 40.971846,250.10611 v 0.89936 l -3.001909,4.07749 h -0.388911 v -0.51044 z m -1.543492,0.80213 q -0.352451,0 -0.607674,0.26738 -0.249146,0.26738 -0.358527,0.63806 -0.109382,0.37068 -0.109382,0.78997 0,0.30992 0.06077,0.6016 0.06684,0.28561 0.194455,0.54083 0.127612,0.24915 0.346375,0.40106 0.224839,0.15192 0.510446,0.15192 0.273453,0 0.486139,-0.15192 0.212685,-0.15191 0.328143,-0.40106 0.121535,-0.24915 0.176226,-0.53475 0.06077,-0.28561 0.06077,-0.58945 0,-0.42537 -0.103304,-0.79605 -0.09723,-0.37676 -0.358528,-0.64413 -0.255223,-0.27346 -0.625904,-0.27346 z m 0.01823,-0.76567 q 0.54083,0 0.947972,0.38892 0.407141,0.38283 0.59552,0.94797 0.188379,0.55906 0.188379,1.17888 0,0.61375 -0.188379,1.15458 -0.188379,0.54083 -0.601597,0.91759 -0.407142,0.37068 -0.960125,0.37068 -0.419295,0 -0.765669,-0.21268 -0.340297,-0.21269 -0.552983,-0.55906 -0.206609,-0.35245 -0.322067,-0.77783 -0.109381,-0.42537 -0.109381,-0.87505 0,-0.45575 0.109381,-0.89328 0.115458,-0.4436 0.328144,-0.81428 0.212686,-0.37068 0.55906,-0.59552 0.346374,-0.23092 0.771745,-0.23092 z" />
      <path
         id="path1441"
         style="stroke-width:0.268211"
         d="m 67.78359,251.67391 h -0.947971 q -0.364604,0 -0.486139,0.12154 -0.121535,0.12153 -0.121535,0.49829 v 1.31257 q 0,0.316 0.139765,0.44968 0.145842,0.12762 0.467909,0.12762 h 0.947971 q 0.358528,0 0.480062,-0.12154 0.127612,-0.12761 0.127612,-0.45576 v -1.31257 q 0,-0.35853 -0.133688,-0.48614 -0.133689,-0.13369 -0.473986,-0.13369 z m -1.555645,-0.60159 1.555645,0.006 q 0.668441,0 0.941894,0.27345 0.273454,0.27346 0.273454,0.9419 v 1.31257 q 0,0.65629 -0.267377,0.92367 -0.2613,0.26738 -0.947971,0.26738 l -1.555645,-0.006 v 0.31599 h 0.303837 v 0.61983 h -1.239655 v -0.61983 h 0.27953 v -4.56971 h 0.656288 z" />
      <path
         id="path1443"
         style="stroke-width:0.268211"
         d="m 71.327545,252.61581 v -0.6016 h 0.935817 l 0.273454,-0.24915 v -0.65021 q 0,-0.13369 -0.07292,-0.23091 -0.07292,-0.0972 -0.200533,-0.0972 h -0.868973 q -0.212686,0.006 -0.29776,0.0851 -0.08507,0.0729 -0.09115,0.24307 v 4.31449 h -0.631981 v -4.31449 q 0,-0.26737 0.02431,-0.42537 0.02431,-0.15799 0.079,-0.26738 0.05469,-0.11545 0.182302,-0.16407 0.127612,-0.0547 0.285607,-0.0729 0.164072,-0.0182 0.449679,-0.0182 h 0.868973 q 0.510446,0 0.698825,0.23699 0.194456,0.23092 0.194456,0.71098 v 0.65021 q 0,0.58337 -0.619827,0.58337 0.370681,0 0.492215,0.19446 0.127612,0.18837 0.127612,0.49829 v 0.51652 q 0,0.48006 -0.212686,0.71098 -0.212686,0.22484 -0.680595,0.22484 h -1.069506 q 0,-0.27953 0.218763,-0.43753 0.224839,-0.15799 0.850743,-0.15799 0.188379,0 0.230916,-0.0547 0.04254,-0.0547 0.04254,-0.28561 v -0.51652 l -0.273454,-0.42537 z" />
      <path
         id="path1445"
         style="stroke-width:0.268211"
         d="m 2.2958833,257.85395 0.9297409,0.61983 v 0.30384 H 2.9157106 l -0.9418944,-0.61375 v -0.30992 z m -0.4071415,3.15383 q -0.4922158,0 -0.4922158,0.59552 0,0.32815 0.1154581,0.48614 0.1215347,0.15192 0.3767577,0.15192 h 1.0330455 q 0.2916835,0 0.4618321,-0.158 0.1701487,-0.16407 0.1701487,-0.48006 v -0.59552 z M 1.396526,259.1483 h 1.5252613 q 0.7049017,0 0.9722782,0.27345 0.2734532,0.27346 0.2734532,0.97836 v 1.20319 q 0,0.72921 -0.2673765,1.00266 -0.2673765,0.27346 -0.9783549,0.27346 H 1.8887418 q -0.5894436,0 -0.8507433,-0.29169 -0.25522302,-0.29776 -0.25522302,-0.9905 0,-0.49222 0.29776022,-0.84467 0.2977601,-0.35245 0.8082061,-0.35245 h 1.6650263 q 0,-0.3403 -0.1458417,-0.48614 -0.139765,-0.14584 -0.4861391,-0.14584 H 1.396526 Z" />
      <path
         id="path1447"
         style="stroke-width:0.268211"
         d="m 7.4805506,257.85395 h 0.3220672 v 0.30992 l -0.9418945,0.61375 H 6.5508097 v -0.30384 z m -0.9722781,3.15383 q -0.4922158,0 -0.4922158,0.59552 0,0.32815 0.115458,0.48614 0.1215348,0.15192 0.3767578,0.15192 H 7.541318 q 0.2916834,0 0.4618321,-0.158 0.1701487,-0.16407 0.1701487,-0.48006 v -0.59552 z M 6.0160567,259.1483 H 7.541318 q 0.7049016,0 0.9722781,0.27345 0.2734533,0.27346 0.2734533,0.97836 v 1.20319 q 0,0.72921 -0.2673765,1.00266 -0.2673765,0.27346 -0.9783549,0.27346 H 6.5082725 q -0.5894436,0 -0.8507433,-0.29169 -0.255223,-0.29776 -0.255223,-0.9905 0,-0.49222 0.2977601,-0.84467 0.2977602,-0.35245 0.8082062,-0.35245 h 1.6650263 q 0,-0.3403 -0.1458417,-0.48614 -0.139765,-0.14584 -0.4861391,-0.14584 H 6.0160567 Z" />
      <path
         id="path1449"
         style="stroke-width:0.268211"
         d="m 11.784091,257.30097 0.844667,1.31258 -0.370681,0.18838 -0.473986,-0.73529 -0.461832,0.74744 -0.370681,-0.19446 z m -0.656288,3.70681 q -0.492216,0 -0.492216,0.59552 0,0.32815 0.115458,0.48614 0.121535,0.15192 0.376758,0.15192 h 1.033046 q 0.291683,0 0.461832,-0.158 0.170148,-0.16407 0.170148,-0.48006 v -0.59552 z m -0.492216,-1.85948 h 1.525262 q 0.704901,0 0.972278,0.27345 0.273453,0.27346 0.273453,0.97836 v 1.20319 q 0,0.72921 -0.267376,1.00266 -0.267377,0.27346 -0.978355,0.27346 h -1.033046 q -0.589443,0 -0.850743,-0.29169 -0.255223,-0.29776 -0.255223,-0.9905 0,-0.49222 0.29776,-0.84467 0.29776,-0.35245 0.808206,-0.35245 h 1.665026 q 0,-0.3403 -0.145841,-0.48614 -0.139765,-0.14584 -0.486139,-0.14584 h -1.525262 z" />
      <path
         id="path1451"
         style="stroke-width:0.268211"
         d="m 15.802024,257.75065 q 0.29776,0 0.528676,0.10938 0.230916,0.10938 0.407141,0.21876 0.176226,0.10939 0.346374,0.10939 h 0.0061 q 0.109381,0 0.200532,-0.0912 0.01823,-0.0243 0.103305,-0.13368 0.09115,-0.10939 0.139765,-0.158 l 0.449679,0.40107 q -0.02431,0.0304 -0.109382,0.13368 -0.079,0.10331 -0.145841,0.17015 -0.2613,0.28561 -0.638058,0.28561 -0.328144,0 -0.704902,-0.21876 -0.376757,-0.21877 -0.583366,-0.21877 -0.04861,0 -0.109382,0.079 -0.170148,0.23092 -0.285606,0.35245 l -0.425372,-0.42537 q 0.02431,-0.0304 0.224839,-0.29168 0.24307,-0.32207 0.595521,-0.32207 z m -0.05469,3.25713 q -0.492216,0 -0.492216,0.59552 0,0.32815 0.115458,0.48614 0.121535,0.15192 0.376758,0.15192 h 1.033045 q 0.291684,0 0.461833,-0.158 0.170148,-0.16407 0.170148,-0.48006 v -0.59552 z m -0.492216,-1.85948 h 1.525261 q 0.704902,0 0.972279,0.27345 0.273453,0.27346 0.273453,0.97836 v 1.20319 q 0,0.72921 -0.267377,1.00266 -0.267376,0.27346 -0.978355,0.27346 h -1.033045 q -0.589444,0 -0.850743,-0.29169 -0.255223,-0.29776 -0.255223,-0.9905 0,-0.49222 0.29776,-0.84467 0.29776,-0.35245 0.808206,-0.35245 h 1.665026 q 0,-0.3403 -0.145842,-0.48614 -0.139765,-0.14584 -0.486139,-0.14584 h -1.525261 z" />
      <path
         id="path1453"
         style="stroke-width:0.268211"
         d="m 21.302682,258.74116 v -0.61375 h 0.625904 v 0.61375 z m -1.221424,0 v -0.61375 h 0.625904 v 0.61375 z m 0.285607,2.26662 q -0.492216,0 -0.492216,0.59552 0,0.32815 0.115458,0.48614 0.121535,0.15192 0.376758,0.15192 h 1.033045 q 0.291683,0 0.461832,-0.158 0.170149,-0.16407 0.170149,-0.48006 v -0.59552 z m -0.492216,-1.85948 h 1.525261 q 0.704902,0 0.972278,0.27345 0.273453,0.27346 0.273453,0.97836 v 1.20319 q 0,0.72921 -0.267376,1.00266 -0.267377,0.27346 -0.978355,0.27346 h -1.033045 q -0.589444,0 -0.850744,-0.29169 -0.255223,-0.29776 -0.255223,-0.9905 0,-0.49222 0.29776,-0.84467 0.297761,-0.35245 0.808207,-0.35245 h 1.665026 q 0,-0.3403 -0.145842,-0.48614 -0.139765,-0.14584 -0.486139,-0.14584 h -1.525261 z" />
      <path
         id="path1455"
         style="stroke-width:0.268211"
         d="m 25.958672,257.23413 h -0.552983 q -0.164072,0 -0.236993,0.0668 -0.07292,0.0668 -0.07292,0.23092 v 0.59552 q 0,0.20661 0.06077,0.27953 0.06684,0.0729 0.249146,0.0729 h 0.552983 q 0.188379,0 0.267377,-0.079 0.08507,-0.079 0.08507,-0.27345 v -0.59552 q 0,-0.29776 -0.352451,-0.29776 z m -1.166733,0.29776 q 0,-0.3403 0.127611,-0.45576 0.127612,-0.12153 0.486139,-0.12153 h 0.552983 q 0.364605,0 0.516523,0.13369 0.151919,0.12761 0.151919,0.4436 v 0.59552 q 0,0.38283 -0.145842,0.52867 -0.139765,0.13977 -0.5226,0.13977 h -0.552983 q -0.31599,0 -0.467909,-0.158 -0.145841,-0.16407 -0.145841,-0.51044 z m 0.194455,3.47589 q -0.492216,0 -0.492216,0.59552 0,0.32815 0.115459,0.48614 0.121534,0.15192 0.376757,0.15192 h 1.033046 q 0.291683,0 0.461832,-0.158 0.170149,-0.16407 0.170149,-0.48006 v -0.59552 z m -0.492216,-1.85948 h 1.525262 q 0.704901,0 0.972278,0.27345 0.273453,0.27346 0.273453,0.97836 v 1.20319 q 0,0.72921 -0.267376,1.00266 -0.267377,0.27346 -0.978355,0.27346 h -1.033046 q -0.589443,0 -0.850743,-0.29169 -0.255223,-0.29776 -0.255223,-0.9905 0,-0.49222 0.29776,-0.84467 0.29776,-0.35245 0.808206,-0.35245 h 1.665027 q 0,-0.3403 -0.145842,-0.48614 -0.139765,-0.14584 -0.486139,-0.14584 h -1.525262 z" />
      <path
         id="path1457"
         style="stroke-width:0.268211"
         d="m 30.632893,260.69179 h 0.522599 q 0.188379,0 0.2613,-0.0608 0.079,-0.0668 0.079,-0.21268 v -0.3403 q 0,-0.34637 -0.340298,-0.34637 h -0.291683 q -0.151919,0 -0.194456,0.0486 -0.03646,0.0486 -0.03646,0.21269 z m -0.875051,0.63198 h -0.57729 q -0.285606,0 -0.285606,0.29169 v 0.30383 q 0,0.12761 0.07292,0.22484 0.07292,0.0972 0.212686,0.0972 h 0.285607 q 0.170149,0 0.230916,-0.079 0.06077,-0.079 0.06077,-0.24307 z m 1.09989,0.91759 q 0.200532,0 0.346374,-0.1033 0.145842,-0.10939 0.206609,-0.237 0.06684,-0.12761 0.145842,-0.23091 0.079,-0.10938 0.164072,-0.10938 0.364604,0 0.364604,0.37068 0,0.44967 -0.249146,0.68667 -0.24307,0.23699 -0.680595,0.23699 h -0.29776 q -0.437525,0 -0.601597,-0.11546 -0.164072,-0.12153 -0.164072,-0.49829 0,0.35853 -0.139765,0.48614 -0.133688,0.12761 -0.486139,0.12761 h -0.285607 q -0.528676,0 -0.717055,-0.20053 -0.182302,-0.20661 -0.182302,-0.73529 v -0.26737 q 0,-0.51653 0.218763,-0.73529 0.218762,-0.22484 0.680594,-0.22484 0.303837,0 0.437525,-0.13369 0.139765,-0.13976 0.139765,-0.48006 0,-0.21268 -0.04861,-0.27953 -0.04861,-0.0668 -0.24307,-0.0668 -0.285607,0 -0.431448,0.1823 -0.139765,0.1823 -0.139765,0.50437 h -0.613751 v -0.3403 q 0,-0.95405 1.178887,-0.95405 0.346374,0 0.486139,0.13977 0.145842,0.13369 0.145842,0.46791 0,-0.34638 0.157995,-0.47399 0.164072,-0.13369 0.650211,-0.13369 h 0.255223 q 0.394988,0 0.662365,0.26738 0.267376,0.26738 0.267376,0.68667 v 0.3403 q 0,0.52867 -0.230916,0.71705 -0.224839,0.18838 -0.698825,0.18838 h -0.29776 q -0.07292,0 -0.133688,0.0608 -0.05469,0.0608 -0.07292,0.12153 l -0.01823,0.0547 v 0.35852 q 0,0.17015 0.04254,0.24915 0.04861,0.0729 0.182302,0.0729 z" />
      <path
         id="path1459"
         style="stroke-width:0.268211"
         d="m 36.504231,263.66332 z m -0.401065,-0.21877 q 0,0.37069 -0.121535,0.50437 -0.121535,0.13369 -0.510446,0.13369 h -0.303837 v -0.31599 h 0.303837 q 0.303837,0 0.303837,-0.31599 0,-0.13369 -0.08507,-0.21876 -0.079,-0.079 -0.218763,-0.079 v -0.31599 q 0.394988,0 0.510446,0.12154 0.121535,0.12153 0.121535,0.48613 z m 0.243069,-4.30233 v 0.61983 l -1.397649,0.0365 q -0.461833,0.0121 -0.759593,0.37068 -0.29776,0.35853 -0.29776,0.84467 0,0.48614 0.29776,0.85074 0.29776,0.36461 0.759593,0.37676 l 1.397649,0.0365 v 0.6016 h -1.397649 q -0.723132,0 -1.203195,-0.55299 -0.473985,-0.55906 -0.473985,-1.31257 0,-0.74744 0.480062,-1.29435 0.480062,-0.55298 1.197118,-0.55906 z" />
      <path
         id="path1461"
         style="stroke-width:0.268211"
         d="m 39.136671,257.82965 0.929741,0.61983 v 0.30383 h -0.309914 l -0.941894,-0.61375 v -0.30991 z m 0.796052,1.90809 h -0.954048 q -0.31599,0 -0.449678,0.19446 -0.133688,0.18838 -0.133688,0.73528 h 2.132935 q 0,-0.57729 -0.115458,-0.75351 -0.115458,-0.17623 -0.480063,-0.17623 z m -0.954048,-0.61375 h 0.954048 q 0.686672,0 0.947972,0.32207 0.267376,0.32207 0.267376,1.22142 v 0.61983 h -2.770993 q 0,0.59552 0.115458,0.77782 0.121535,0.18231 0.486139,0.18231 h 2.169396 v 0.63198 h -2.169396 q -0.686671,0 -0.972278,-0.37068 -0.285606,-0.37068 -0.29776,-1.22143 v -0.61983 q 0.0061,-0.88112 0.291684,-1.20927 0.291683,-0.33422 0.978354,-0.33422 z" />
      <path
         id="path1463"
         style="stroke-width:0.268211"
         d="m 44.455025,257.82965 h 0.322067 v 0.30991 l -0.941894,0.61375 h -0.309914 v -0.30383 z m 0.09723,1.90809 h -0.954048 q -0.31599,0 -0.449678,0.19446 -0.133689,0.18838 -0.133689,0.73528 h 2.132935 q 0,-0.57729 -0.115458,-0.75351 -0.115458,-0.17623 -0.480062,-0.17623 z m -0.954048,-0.61375 h 0.954048 q 0.686672,0 0.947971,0.32207 0.267377,0.32207 0.267377,1.22142 v 0.61983 h -2.770993 q 0,0.59552 0.115458,0.77782 0.121535,0.18231 0.486139,0.18231 h 2.169396 v 0.63198 h -2.169396 q -0.686671,0 -0.972278,-0.37068 -0.285607,-0.37068 -0.29776,-1.22143 v -0.61983 q 0.0061,-0.88112 0.291683,-1.20927 0.291684,-0.33422 0.978355,-0.33422 z" />
      <path
         id="path1465"
         style="stroke-width:0.268211"
         d="m 48.788948,257.2402 0.844667,1.31258 -0.370681,0.18838 -0.473986,-0.73529 -0.461832,0.74744 -0.370681,-0.19445 z m 0.382835,2.49754 h -0.954048 q -0.31599,0 -0.449679,0.19446 -0.133688,0.18838 -0.133688,0.73528 h 2.132935 q 0,-0.57729 -0.115458,-0.75351 -0.115458,-0.17623 -0.480062,-0.17623 z m -0.954048,-0.61375 h 0.954048 q 0.686671,0 0.947971,0.32207 0.267376,0.32207 0.267376,1.22142 v 0.61983 h -2.770992 q 0,0.59552 0.115458,0.77782 0.121535,0.18231 0.486139,0.18231 h 2.169395 v 0.63198 h -2.169395 q -0.686671,0 -0.972278,-0.37068 -0.285607,-0.37068 -0.29776,-1.22143 v -0.61983 q 0.0061,-0.88112 0.291683,-1.20927 0.291684,-0.33422 0.978355,-0.33422 z" />
      <path
         id="path1467"
         style="stroke-width:0.268211"
         d="m 53.59078,258.75331 v -0.61375 h 0.625904 v 0.61375 z m -1.221424,0 v -0.61375 h 0.625904 v 0.61375 z m 1.421957,0.98443 h -0.954048 q -0.315991,0 -0.449679,0.19446 -0.133688,0.18838 -0.133688,0.73528 h 2.132935 q 0,-0.57729 -0.115458,-0.75351 -0.115458,-0.17623 -0.480062,-0.17623 z m -0.954048,-0.61375 h 0.954048 q 0.686671,0 0.947971,0.32207 0.267376,0.32207 0.267376,1.22142 v 0.61983 h -2.770992 q 0,0.59552 0.115458,0.77782 0.121534,0.18231 0.486139,0.18231 h 2.169395 v 0.63198 h -2.169395 q -0.686672,0 -0.972278,-0.37068 -0.285607,-0.37068 -0.297761,-1.22143 v -0.61983 q 0.0061,-0.88112 0.291684,-1.20927 0.291683,-0.33422 0.978355,-0.33422 z" />
      <path
         id="path1469"
         style="stroke-width:0.268211"
         d="m 57.462871,257.86611 0.929741,0.61983 v 0.30383 h -0.309914 l -0.941894,-0.61375 v -0.30991 z m -0.783899,1.5921 h 1.543491 v 2.78923 h 0.911511 v 0.60767 h -2.455002 v -0.60767 h 0.905434 v -2.1694 h -0.905434 z" />
      <path
         id="path1471"
         style="stroke-width:0.268211"
         d="m 62.562467,257.86611 h 0.322067 v 0.30991 l -0.941894,0.61375 h -0.309914 v -0.30383 z m -1.421957,1.5921 h 1.543492 v 2.78923 h 0.91151 v 0.60767 H 61.14051 v -0.60767 h 0.905434 v -2.1694 H 61.14051 Z" />
      <path
         id="path1473"
         style="stroke-width:0.268211"
         d="m 67.054381,257.27666 0.844667,1.31258 -0.370681,0.18838 -0.473986,-0.73529 -0.461832,0.74744 -0.370681,-0.19445 z m -1.13635,2.18155 h 1.543492 v 2.78923 h 0.911511 v 0.60767 h -2.455003 v -0.60767 h 0.905434 v -2.1694 h -0.905434 z" />
      <path
         id="path1475"
         style="stroke-width:0.268211"
         d="m 71.74684,258.78977 v -0.61375 h 0.625904 v 0.61375 z m -1.221425,0 v -0.61375 h 0.625904 v 0.61375 z m -0.218762,0.66844 h 1.543491 v 2.78923 h 0.911511 v 0.60767 h -2.455002 v -0.60767 h 0.905434 v -2.1694 h -0.905434 z" />
      <path
         id="path1477"
         style="stroke-width:0.268211"
         d="M 2.9704012,267.5342 H 2.0285068 q -0.3646043,0 -0.4800623,0.12153 -0.115458,0.12154 -0.115458,0.4983 v 1.31257 q 0,0.31599 0.1336882,0.44968 0.139765,0.12761 0.4618321,0.12761 h 0.9418944 q 0.3585276,0 0.4861391,-0.12153 0.1276115,-0.12761 0.1276115,-0.45576 v -1.31257 q 0,-0.35853 -0.1336882,-0.48614 -0.1336883,-0.13369 -0.4800624,-0.13369 z m 1.2153477,0.61983 v 1.31257 q 0,0.65629 -0.2673765,0.92367 -0.2612997,0.26737 -0.9479712,0.26737 H 2.0285068 q -0.6866714,0 -0.9783548,-0.26737 -0.29168348,-0.26738 -0.29168348,-0.92367 v -1.31257 q 0,-0.66237 0.28560668,-0.93582 0.2916835,-0.27953 0.9844316,-0.27953 h 1.0998896 l -0.7474388,-0.74744 -0.4739855,0.47399 -0.2734533,-0.29169 0.4557554,-0.45575 -0.8932805,-0.94797 0.255223,-0.25523 0.9479711,0.92974 0.6562878,-0.63805 0.2734532,0.32814 -0.6198273,0.61983 0.9844316,0.94797 q 0.01823,0.0122 0.048614,0.0365 0.03646,0.0243 0.1215348,0.12761 0.085074,0.0972 0.1458417,0.22484 0.066844,0.12761 0.1215347,0.35853 0.054691,0.23091 0.054691,0.50437 z" />
      <path
         id="path1479"
         style="stroke-width:0.268211"
         d="m 6.404968,265.5228 q 0.2977601,0 0.5286762,0.10938 0.230916,0.10938 0.4071415,0.21876 0.1762254,0.10938 0.346374,0.10938 h 0.00608 q 0.1093813,0 0.2005323,-0.0912 0.01823,-0.0243 0.1033046,-0.13369 0.091151,-0.10938 0.139765,-0.15799 l 0.4496786,0.40106 q -0.024307,0.0304 -0.1093813,0.13369 -0.078998,0.10331 -0.1458417,0.17015 -0.2612998,0.28561 -0.6380575,0.28561 -0.3281439,0 -0.7049017,-0.21877 -0.3767577,-0.21876 -0.5833668,-0.21876 -0.048614,0 -0.1093813,0.079 -0.1701487,0.23092 -0.2856067,0.35245 l -0.4253717,-0.42537 q 0.024307,-0.0304 0.2248393,-0.29168 0.2430695,-0.32207 0.5955204,-0.32207 z m 1.6346425,5.13484 v -3.09913 q 0,0 -0.9358176,0 -0.2248394,0 -0.5104461,0.12761 -0.2795299,0.12761 -0.4982925,0.35245 -0.2126858,0.21876 -0.2126858,0.45575 v 2.16332 H 5.2564644 v -3.71896 h 0.6259041 v 0.86897 q 0,-0.31599 0.4192949,-0.58944 0.419295,-0.27953 0.8021295,-0.27953 h 1.2396546 q 0.1701486,0 0.2430695,0.079 0.072921,0.079 0.072921,0.24914 v 3.39082 z" />
      <path
         id="path1481"
         style="stroke-width:0.268211"
         d="m 11.419487,265.64433 0.929741,0.61983 v 0.30384 h -0.309914 l -0.941894,-0.61375 v -0.30992 z m 0.789976,1.88987 h -0.941895 q -0.364604,0 -0.480062,0.12153 -0.115458,0.12154 -0.115458,0.4983 v 1.31257 q 0,0.31599 0.133688,0.44968 0.139765,0.12761 0.461832,0.12761 h 0.941895 q 0.358527,0 0.486139,-0.12153 0.127611,-0.12761 0.127611,-0.45576 v -1.31257 q 0,-0.35853 -0.133688,-0.48614 -0.133688,-0.13369 -0.480062,-0.13369 z m -0.941895,-0.59552 h 0.941895 q 0.662364,0 0.935817,0.27345 0.27953,0.27346 0.27953,0.9419 v 1.31257 q 0,0.65629 -0.267376,0.92367 -0.2613,0.26737 -0.947971,0.26737 h -0.941895 q -0.686671,0 -0.978355,-0.26737 -0.2916831,-0.26738 -0.2916831,-0.92367 v -1.31257 q 0,-0.66237 0.2856071,-0.93582 0.291683,-0.27953 0.984431,-0.27953 z" />
      <path
         id="path1483"
         style="stroke-width:0.268211"
         d="m 16.555539,265.64433 h 0.322067 v 0.30992 l -0.941894,0.61375 h -0.309914 v -0.30384 z m 0.273453,1.88987 h -0.941894 q -0.364604,0 -0.480062,0.12153 -0.115458,0.12154 -0.115458,0.4983 v 1.31257 q 0,0.31599 0.133688,0.44968 0.139765,0.12761 0.461832,0.12761 h 0.941894 q 0.358528,0 0.486139,-0.12153 0.127612,-0.12761 0.127612,-0.45576 v -1.31257 q 0,-0.35853 -0.133688,-0.48614 -0.133689,-0.13369 -0.480063,-0.13369 z m -0.941894,-0.59552 h 0.941894 q 0.662365,0 0.935818,0.27345 0.27953,0.27346 0.27953,0.9419 v 1.31257 q 0,0.65629 -0.267377,0.92367 -0.261299,0.26737 -0.947971,0.26737 h -0.941894 q -0.686672,0 -0.978355,-0.26737 -0.291683,-0.26738 -0.291683,-0.92367 v -1.31257 q 0,-0.66237 0.285606,-0.93582 0.291684,-0.27953 0.984432,-0.27953 z" />
      <path
         id="path1485"
         style="stroke-width:0.268211"
         d="m 21.071766,265.05489 0.844667,1.31258 -0.370681,0.18837 -0.473986,-0.73528 -0.461832,0.74744 -0.370681,-0.19446 z m 0.376758,2.47931 H 20.50663 q -0.364605,0 -0.480063,0.12153 -0.115458,0.12154 -0.115458,0.4983 v 1.31257 q 0,0.31599 0.133688,0.44968 0.139765,0.12761 0.461833,0.12761 h 0.941894 q 0.358528,0 0.486139,-0.12153 0.127612,-0.12761 0.127612,-0.45576 v -1.31257 q 0,-0.35853 -0.133689,-0.48614 -0.133688,-0.13369 -0.480062,-0.13369 z m -0.941894,-0.59552 h 0.941894 q 0.662364,0 0.935818,0.27345 0.27953,0.27346 0.27953,0.9419 v 1.31257 q 0,0.65629 -0.267377,0.92367 -0.2613,0.26737 -0.947971,0.26737 H 20.50663 q -0.686672,0 -0.978355,-0.26737 -0.291684,-0.26738 -0.291684,-0.92367 v -1.31257 q 0,-0.66237 0.285607,-0.93582 0.291683,-0.27953 0.984432,-0.27953 z" />
      <path
         id="path1487"
         style="stroke-width:0.268211"
         d="m 24.700788,265.54103 q 0.29776,0 0.528676,0.10938 0.230916,0.10938 0.407141,0.21876 0.176226,0.10938 0.346374,0.10938 h 0.0061 q 0.109381,0 0.200532,-0.0911 0.01823,-0.0243 0.103305,-0.13369 0.09115,-0.10938 0.139765,-0.15799 l 0.449679,0.40106 q -0.02431,0.0304 -0.109382,0.13369 -0.079,0.10331 -0.145841,0.17015 -0.2613,0.28561 -0.638058,0.28561 -0.328144,0 -0.704902,-0.21876 -0.376757,-0.21877 -0.583366,-0.21877 -0.04861,0 -0.109382,0.079 -0.170148,0.23092 -0.285606,0.35245 l -0.425372,-0.42537 q 0.02431,-0.0304 0.224839,-0.29168 0.24307,-0.32207 0.595521,-0.32207 z m 1.227501,1.99317 h -0.941895 q -0.364604,0 -0.480062,0.12153 -0.115458,0.12154 -0.115458,0.4983 v 1.31257 q 0,0.31599 0.133688,0.44968 0.139765,0.12761 0.461832,0.12761 h 0.941895 q 0.358527,0 0.486139,-0.12153 0.127611,-0.12761 0.127611,-0.45576 v -1.31257 q 0,-0.35853 -0.133688,-0.48614 -0.133688,-0.13369 -0.480062,-0.13369 z m -0.941895,-0.59552 h 0.941895 q 0.662364,0 0.935817,0.27345 0.27953,0.27346 0.27953,0.9419 v 1.31257 q 0,0.65629 -0.267376,0.92367 -0.2613,0.26737 -0.947971,0.26737 h -0.941895 q -0.686671,0 -0.978355,-0.26737 -0.291683,-0.26738 -0.291683,-0.92367 v -1.31257 q 0,-0.66237 0.285607,-0.93582 0.291683,-0.27953 0.984431,-0.27953 z" />
      <path
         id="path1489"
         style="stroke-width:0.268211"
         d="m 30.43236,266.568 v -0.61375 h 0.625904 v 0.61375 z m -1.221424,0 v -0.61375 h 0.625904 v 0.61375 z m 1.470571,0.9662 h -0.941895 q -0.364604,0 -0.480062,0.12153 -0.115458,0.12154 -0.115458,0.4983 v 1.31257 q 0,0.31599 0.133688,0.44968 0.139765,0.12761 0.461832,0.12761 h 0.941895 q 0.358527,0 0.486139,-0.12153 0.127611,-0.12761 0.127611,-0.45576 v -1.31257 q 0,-0.35853 -0.133688,-0.48614 -0.133688,-0.13369 -0.480062,-0.13369 z m -0.941895,-0.59552 h 0.941895 q 0.662364,0 0.935817,0.27345 0.27953,0.27346 0.27953,0.9419 v 1.31257 q 0,0.65629 -0.267376,0.92367 -0.2613,0.26737 -0.947971,0.26737 h -0.941895 q -0.686671,0 -0.978355,-0.26737 -0.291683,-0.26738 -0.291683,-0.92367 v -1.31257 q 0,-0.66237 0.285607,-0.93582 0.291683,-0.27953 0.984431,-0.27953 z" />
      <path
         id="path1491"
         style="stroke-width:0.268211"
         d="m 34.498907,269.41799 0.644134,0.006 v 0.61983 h -0.644134 z m 0,-2.48539 0.644134,0.006 v 0.61983 h -0.644134 z m -1.251808,1.86556 v -0.6259 h 3.123443 v 0.6259 z" />
      <path
         id="path1493"
         style="stroke-width:0.268211"
         d="m 37.811942,270.08643 q -0.09723,-0.23699 -0.09723,-0.61983 v -1.31257 q 0,-0.65629 0.285607,-0.93582 0.291683,-0.27953 0.984431,-0.27953 h 0.941895 q 0.662364,0 0.935817,0.26738 0.09115,0.0182 0.170149,0.0972 0.103305,0.10331 0.103305,0.23092 0,0.0729 -0.03646,0.15799 0.04254,0.18838 0.04254,0.46184 v 1.31257 q 0,0.65629 -0.267376,0.92367 -0.2613,0.26737 -0.947971,0.26737 h -0.941895 q -0.498292,0 -0.771746,-0.12761 -0.079,0.0304 -0.151918,0.0304 -0.133688,0 -0.218763,-0.1033 -0.07292,-0.0912 -0.07292,-0.19446 0,-0.0729 0.04254,-0.17622 z m 0.990508,-0.0547 q 0.121535,0.0121 0.182302,0.0121 h 0.941895 q 0.358527,0 0.486139,-0.12153 0.127611,-0.12761 0.127611,-0.45576 v -1.1485 z m -0.413218,-0.58945 1.859482,-1.87163 q -0.127612,-0.0365 -0.322067,-0.0365 h -0.941895 q -0.364604,0 -0.480062,0.12153 -0.115458,0.12154 -0.115458,0.4983 z" />
      <path
         id="path1495"
         style="stroke-width:0.268211"
         d="m 43.731893,265.64433 0.929741,0.61983 v 0.30384 h -0.309913 l -0.941895,-0.61375 v -0.30992 z m 0.176226,4.39349 q 0.364604,0 0.789976,-0.29169 0.425372,-0.29776 0.425372,-0.64413 v -2.16332 h 0.63198 v 3.71896 h -0.63198 v -0.86897 q 0,0.30991 -0.419295,0.58944 -0.419295,0.27953 -0.796053,0.27953 h -0.59552 q -0.972279,0 -0.972279,-0.94797 l 0.01215,-2.77099 h 0.619827 v 2.77099 q 0,0.32815 0.340298,0.32815 z" />
      <path
         id="path1497"
         style="stroke-width:0.268211"
         d="m 49.050248,265.64433 h 0.322067 v 0.30992 l -0.941894,0.61375 h -0.309914 v -0.30384 z m -0.522599,4.39349 q 0.364604,0 0.789976,-0.29169 0.425371,-0.29776 0.425371,-0.64413 v -2.16332 h 0.631981 v 3.71896 h -0.631981 v -0.86897 q 0,0.30991 -0.419295,0.58944 -0.419295,0.27953 -0.796052,0.27953 h -0.595521 q -0.972278,0 -0.972278,-0.94797 l 0.01215,-2.77099 h 0.619827 v 2.77099 q 0,0.32815 0.340297,0.32815 z" />
      <path
         id="path1499"
         style="stroke-width:0.268211"
         d="m 53.384171,265.05489 0.844667,1.31258 -0.370681,0.18837 -0.473986,-0.73528 -0.461832,0.74744 -0.370681,-0.19446 z m -0.236993,4.98293 q 0.364605,0 0.789976,-0.29169 0.425372,-0.29776 0.425372,-0.64413 v -2.16332 h 0.631981 v 3.71896 h -0.631981 v -0.86897 q 0,0.30991 -0.419295,0.58944 -0.419295,0.27953 -0.796053,0.27953 h -0.59552 q -0.972278,0 -0.972278,-0.94797 l 0.01215,-2.77099 h 0.619828 v 2.77099 q 0,0.32815 0.340297,0.32815 z" />
      <path
         id="path1501"
         style="stroke-width:0.268211"
         d="m 58.19208,266.568 v -0.61375 h 0.625904 v 0.61375 z m -1.221425,0 v -0.61375 h 0.625904 v 0.61375 z m 0.796053,3.46982 q 0.364604,0 0.789976,-0.29169 0.425372,-0.29776 0.425372,-0.64413 v -2.16332 h 0.63198 v 3.71896 h -0.63198 v -0.86897 q 0,0.30991 -0.419295,0.58944 -0.419295,0.27953 -0.796053,0.27953 h -0.59552 q -0.972278,0 -0.972278,-0.94797 l 0.01215,-2.77099 h 0.619827 v 2.77099 q 0,0.32815 0.340298,0.32815 z" />
      <path
         id="path1503"
         style="stroke-width:0.268211"
         d="m 62.908841,265.64433 h 0.322067 v 0.30992 L 62.289014,266.568 H 61.9791 v -0.30384 z m -1.142427,6.23474 -0.947971,-0.006 v -0.59552 h 0.947971 q 0.079,0 0.133689,-0.0243 0.06077,-0.0182 0.09723,-0.079 0.04254,-0.0547 0.06077,-0.0972 0.02431,-0.0425 0.05469,-0.13977 0.03646,-0.0911 0.05469,-0.13369 l 0.206609,-0.41929 -1.555645,-2.30916 v -1.13635 h 0.680595 v 0.91151 l 1.215347,1.85948 0.911511,-1.85948 v -0.91151 h 0.607674 v 1.13635 l -1.312575,2.71022 q -0.08507,0.17015 -0.188379,0.40715 -0.09723,0.23699 -0.145842,0.32206 -0.04861,0.0912 -0.151919,0.19446 -0.103304,0.10938 -0.261299,0.13976 -0.151919,0.0304 -0.407142,0.0304 z" />
      <path
         id="path1505"
         style="stroke-width:0.268211"
         d="m 67.78359,267.21821 h -0.947971 q -0.364604,0 -0.486139,0.12153 -0.121535,0.12154 -0.121535,0.4983 v 1.31257 q 0,0.31599 0.139765,0.44968 0.145842,0.12761 0.467909,0.12761 h 0.947971 q 0.358528,0 0.480062,-0.12153 0.127612,-0.12761 0.127612,-0.45576 v -1.31257 q 0,-0.35853 -0.133688,-0.48614 -0.133689,-0.13369 -0.473986,-0.13369 z m -1.555645,-0.6016 1.555645,0.006 q 0.668441,0 0.941894,0.27345 0.273454,0.27345 0.273454,0.9419 v 1.31257 q 0,0.65629 -0.267377,0.92367 -0.2613,0.26737 -0.947971,0.26737 l -1.555645,-0.006 v 0.92974 h 0.303837 v 0.61982 h -1.239655 v -0.61982 h 0.27953 v -5.59668 h 0.656288 z" />
      <path
         id="path1507"
         style="stroke-width:0.268211"
         d="m 72.050677,266.47685 v -0.61375 h 0.625904 v 0.61375 z m -1.221425,0 v -0.61375 h 0.625904 v 0.61375 z m 0.176226,5.40222 -0.947972,-0.006 v -0.59552 h 0.947972 q 0.079,0 0.133688,-0.0243 0.06077,-0.0182 0.09723,-0.079 0.04254,-0.0547 0.06077,-0.0972 0.02431,-0.0425 0.05469,-0.13977 0.03646,-0.0911 0.05469,-0.13369 l 0.206609,-0.41929 -1.555645,-2.30916 v -1.13635 h 0.680595 v 0.91151 l 1.215348,1.85948 0.91151,-1.85948 v -0.91151 h 0.607674 v 1.13635 l -1.312575,2.71022 q -0.08508,0.17015 -0.188379,0.40715 -0.09723,0.23699 -0.145842,0.32206 -0.04861,0.0912 -0.151918,0.19446 -0.103305,0.10938 -0.2613,0.13976 -0.151918,0.0304 -0.407141,0.0304 z" />
    </g>
    <g
       style="font-style:normal;font-variant:normal;font-weight:normal;font-stretch:normal;font-size:6.22258px;line-height:1.25;font-family:Armagetronad;-inkscape-font-specification:'Armagetronad, Normal';font-variant-ligatures:normal;font-variant-caps:normal;font-variant-numeric:normal;font-feature-settings:normal;text-align:start;letter-spacing:0.548116px;word-spacing:0px;writing-mode:lr-tb;text-anchor:start;fill:#ffffff;fill-opacity:1;stroke:none;stroke-width:0.268211"
       id="text817-8"
       transform="scale(0.91658734,1.0910035)"
       aria-label="
ÀÁAÃÄÅÆÇÈÉËËÌÍÎÏ
ÐÑÒÓOÕÖ  ÙÚÛÜÝ  
">
      <path
         id="path1380"
         style="stroke-width:0.268211"
         d="m 2.1196579,241.18128 0.9297409,0.61983 v 0.30384 H 2.7394852 L 1.7975908,241.4912 v -0.30992 z m 2.1511653,6.27727 H 3.4504636 L 3.1040895,246.35866 H 1.7975908 l -0.3159904,1.09989 H 0.67339419 L 2.4356483,242.47563 Z M 1.9616627,245.72061 H 2.9157106 L 2.466032,244.3108 Z" />
      <path
         id="path1382"
         style="stroke-width:0.268211"
         d="m 7.5230878,241.18128 h 0.3220671 v 0.30992 l -0.9418944,0.61375 H 6.5933468 v -0.30384 z m 1.3672661,6.27727 H 8.0699942 l -0.346374,-1.09989 H 6.4171214 l -0.3159903,1.09989 H 5.2929249 L 7.055179,242.47563 Z M 6.5811934,245.72061 H 7.5352413 L 7.0855626,244.3108 Z" />
      <path
         id="path1384"
         style="stroke-width:0.268211"
         d="m 13.509885,247.45855 h -0.82036 l -0.346374,-1.09989 h -1.306499 l -0.31599,1.09989 H 9.9124555 l 1.7622545,-4.98292 z m -2.309161,-1.73794 h 0.954048 l -0.449679,-1.40981 z" />
      <path
         id="path1386"
         style="stroke-width:0.268211"
         d="m 15.558954,241.05975 q 0.29776,0 0.528676,0.10938 0.230916,0.10938 0.407142,0.21876 0.176225,0.10938 0.346374,0.10938 h 0.0061 q 0.109381,0 0.200532,-0.0911 0.01823,-0.0243 0.103304,-0.13369 0.09115,-0.10938 0.139765,-0.15799 l 0.449679,0.40106 q -0.02431,0.0304 -0.109381,0.13369 -0.079,0.10331 -0.145842,0.17015 -0.2613,0.28561 -0.638057,0.28561 -0.328144,0 -0.704902,-0.21877 -0.376758,-0.21876 -0.583367,-0.21876 -0.04861,0 -0.109381,0.079 -0.170149,0.23092 -0.285607,0.35245 l -0.425372,-0.42537 q 0.02431,-0.0304 0.22484,-0.29169 0.243069,-0.32206 0.59552,-0.32206 z m 2.509693,6.3988 h -0.82036 l -0.346374,-1.09989 h -1.306499 l -0.31599,1.09989 h -0.808206 l 1.762254,-4.98292 z m -2.309161,-1.73794 h 0.954048 l -0.449678,-1.40981 z" />
      <path
         id="path1388"
         style="stroke-width:0.268211"
         d="m 21.235838,242.12318 v -0.61375 h 0.625904 v 0.61375 z m -1.221424,0 v -0.61375 h 0.625904 v 0.61375 z m 2.734532,5.33537 h -0.82036 l -0.346374,-1.09989 h -1.306499 l -0.31599,1.09989 h -0.808206 l 1.762254,-4.98292 z m -2.309161,-1.73794 h 0.954048 l -0.449678,-1.40981 z" />
      <path
         id="path1390"
         style="stroke-width:0.268211"
         d="m 25.745987,241.11444 h -0.419295 q -0.121535,0 -0.176226,0.0547 -0.05469,0.0486 -0.05469,0.17015 v 0.4436 q 0,0.15192 0.04861,0.20661 0.04861,0.0547 0.182303,0.0547 h 0.419295 q 0.139765,0 0.200532,-0.0547 0.06684,-0.0608 0.06684,-0.20661 v -0.4436 q 0,-0.22484 -0.267376,-0.22484 z m -0.881127,0.22484 q 0,-0.25523 0.09723,-0.3403 0.09723,-0.0911 0.364605,-0.0911 h 0.419295 q 0.273453,0 0.388911,0.0972 0.115458,0.0972 0.115458,0.33422 v 0.4436 q 0,0.28561 -0.109381,0.39499 -0.109382,0.1033 -0.394988,0.1033 h -0.419295 q -0.236993,0 -0.352451,-0.11546 -0.109381,-0.12153 -0.109381,-0.38283 z m 2.503616,6.11927 h -0.82036 l -0.346374,-1.09989 h -1.306499 l -0.31599,1.09989 h -0.808206 l 1.762254,-4.98292 z m -2.309161,-1.73794 h 0.954048 l -0.449679,-1.40981 z" />
      <path
         id="path1392"
         style="stroke-width:0.268211"
         d="m 30.189291,243.10153 -0.364604,1.54349 h 0.364604 z m 1.883789,-0.61375 v 0.61375 h -1.257885 v 1.54349 h 0.619827 v 0.61375 h -0.619827 v 1.52527 l 1.245731,-0.006 v 0.66236 h -1.871635 v -2.18155 h -0.54083 l -0.571213,2.1694 h -0.771746 l 1.476647,-4.94039 z" />
      <path
         id="path1394"
         style="stroke-width:0.268211"
         d="m 36.540691,248.18168 z m -0.401065,-0.21876 q 0,0.37068 -0.121535,0.50437 -0.121534,0.13369 -0.510446,0.13369 h -0.303836 v -0.31599 h 0.303836 q 0.303837,0 0.303837,-0.31599 0,-0.13369 -0.08507,-0.21876 -0.079,-0.079 -0.218763,-0.079 v -0.31599 q 0.394988,0 0.510446,0.12153 0.121535,0.12154 0.121535,0.48614 z m 0.133689,-5.50552 v 0.60159 h -0.984432 q -0.352451,0 -0.601597,0.11546 -0.249146,0.11546 -0.382835,0.27953 -0.127611,0.16407 -0.200532,0.43753 -0.07292,0.27345 -0.09115,0.49221 -0.01215,0.21877 -0.01215,0.54691 0,0.30991 0.02431,0.53475 0.02431,0.22484 0.109382,0.48007 0.09115,0.24914 0.243069,0.40714 0.151919,0.15799 0.425372,0.2613 0.273453,0.1033 0.656288,0.1033 h 0.814283 v 0.6806 h -1.178888 q -0.370681,0 -0.674518,-0.14585 -0.29776,-0.14584 -0.498292,-0.38283 -0.194456,-0.24307 -0.328144,-0.56514 -0.133688,-0.32206 -0.194456,-0.66236 -0.05469,-0.34638 -0.05469,-0.71098 0,-1.13635 0.394988,-1.80479 0.401064,-0.66844 1.197117,-0.66844 z" />
      <path
         id="path1396"
         style="stroke-width:0.268211"
         d="m 39.160978,241.20559 0.929741,0.61983 v 0.30383 h -0.309914 l -0.941894,-0.61375 v -0.30991 z m -1.306499,6.22866 v -4.95862 l 3.14775,0.006 v 0.62591 l -2.491462,0.0122 v 1.51919 l 1.239654,0.006 -0.01215,0.61375 -1.251808,0.006 0.01215,1.51311 2.491463,-0.006 v 0.66237 z" />
      <path
         id="path1398"
         style="stroke-width:0.268211"
         d="m 44.85609,241.18128 h 0.322067 v 0.30992 l -0.941894,0.61375 h -0.309914 v -0.30384 z m -2.382081,6.25297 v -4.95862 l 3.14775,0.006 v 0.62591 l -2.491463,0.0122 v 1.51919 l 1.239655,0.006 -0.01215,0.61375 -1.251809,0.006 0.01215,1.51311 2.491463,-0.006 v 0.66237 z" />
      <path
         id="path1400"
         style="stroke-width:0.268211"
         d="m 49.074555,242.10495 v -0.61375 h 0.625904 v 0.61375 z m -1.221424,0 v -0.61375 h 0.625904 v 0.61375 z m -0.82036,5.3293 v -4.95862 l 3.14775,0.006 v 0.62591 l -2.491462,0.0122 v 1.51919 l 1.239654,0.006 -0.01215,0.61375 -1.251808,0.006 0.01215,1.51311 2.491463,-0.006 v 0.66237 z" />
      <path
         id="path1402"
         style="stroke-width:0.268211"
         d="m 53.694085,242.10495 v -0.61375 h 0.625904 v 0.61375 z m -1.221425,0 v -0.61375 h 0.625904 v 0.61375 z m -0.820359,5.3293 v -4.95862 l 3.14775,0.006 v 0.62591 l -2.491463,0.0122 v 1.51919 l 1.239655,0.006 -0.01215,0.61375 -1.251809,0.006 0.01215,1.51311 2.491463,-0.006 v 0.66237 z" />
      <path
         id="path1404"
         style="stroke-width:0.268211"
         d="m 57.572252,241.16305 0.929741,0.61983 v 0.30384 H 58.19208 l -0.941895,-0.61375 v -0.30992 z m -1.300422,1.30042 3.269286,-0.006 v 0.61982 l -1.294346,0.006 -0.0061,3.70681 1.300422,0.0122 v 0.63198 H 56.27183 v -0.63806 h 1.300422 l -0.0061,-3.71897 H 56.27183 Z" />
      <path
         id="path1406"
         style="stroke-width:0.268211"
         d="m 62.829843,241.16305 h 0.322068 v 0.30992 l -0.941895,0.61375 h -0.309913 v -0.30384 z m -1.938479,1.30042 3.269285,-0.006 v 0.61982 l -1.294345,0.006 -0.0061,3.70681 1.300422,0.0122 v 0.63198 h -3.269285 v -0.63806 h 1.300422 l -0.0061,-3.71897 h -1.294345 z" />
      <path
         id="path1408"
         style="stroke-width:0.268211"
         d="m 67.285297,240.57361 0.844667,1.31257 -0.370681,0.18838 -0.473986,-0.73528 -0.461832,0.74744 -0.370681,-0.19446 z m -1.774407,1.88986 3.269285,-0.006 v 0.61982 l -1.294345,0.006 -0.0061,3.70681 1.300422,0.0122 v 0.63198 H 65.51089 v -0.63806 h 1.300422 l -0.0061,-3.71897 H 65.51089 Z" />
      <path
         id="path1410"
         style="stroke-width:0.268211"
         d="m 72.804192,242.08672 v -0.61375 h 0.625904 v 0.61375 z m -1.221424,0 v -0.61375 h 0.625904 v 0.61375 z m -1.464494,0.37675 3.269285,-0.006 v 0.61982 l -1.294345,0.006 -0.0061,3.70681 1.300422,0.0122 v 0.63198 h -3.269285 v -0.63806 h 1.300422 l -0.0061,-3.71897 h -1.294345 z" />
      <path
         id="path1412"
         style="stroke-width:0.268211"
         d="m 2.0041999,254.58657 q 0.4132182,0 0.6805946,-0.53476 0.2673765,-0.53475 0.2673765,-1.30042 0,-0.89936 -0.2612997,-1.39765 -0.2612998,-0.50437 -0.7413621,-0.50437 H 1.7125164 v 1.57388 h 0.6198273 v 0.6016 H 1.7125164 v 1.56172 z m 0.2612997,-4.34487 q 0.394988,0 0.6805947,0.23092 0.2856067,0.23091 0.4253717,0.6259 0.1458417,0.38891 0.2066091,0.80213 0.066844,0.40714 0.066844,0.86897 0,0.48006 -0.072921,0.89328 -0.066844,0.41322 -0.2248393,0.77783 -0.1519184,0.35852 -0.4436019,0.56513 -0.2856067,0.20661 -0.6805947,0.20661 H 0.44855487 l 0.0121535,-0.6259 H 1.0683822 v -1.56172 H 0.4364014 v -0.6016 h 0.6319808 v -1.57388 H 0.4364014 l 0.006077,-0.60767 z" />
      <path
         id="path1414"
         style="stroke-width:0.268211"
         d="m 6.4110447,248.84405 q 0.2977602,0 0.5286762,0.10938 0.2309161,0.10938 0.4071415,0.21876 0.1762254,0.10938 0.3463741,0.10938 h 0.00608 q 0.1093813,0 0.2005324,-0.0911 0.01823,-0.0243 0.1033045,-0.13368 0.091151,-0.10939 0.139765,-0.158 l 0.4496786,0.40106 q -0.024307,0.0304 -0.1093813,0.13369 -0.078998,0.10331 -0.1458417,0.17015 -0.2612997,0.28561 -0.6380575,0.28561 -0.3281439,0 -0.7049016,-0.21876 -0.3767578,-0.21877 -0.5833669,-0.21877 -0.048614,0 -0.1093813,0.079 -0.1701487,0.23092 -0.2856067,0.35245 L 5.590685,249.4578 q 0.024307,-0.0304 0.2248394,-0.29168 0.2430695,-0.32207 0.5955203,-0.32207 z m 1.7561774,1.39765 H 8.817433 l 0.012154,4.96469 -0.6380575,0.006 -2.297007,-3.81619 v 3.77365 H 5.2078505 v -4.92823 h 0.6562878 l 2.297007,3.6825 z" />
      <path
         id="path1416"
         style="stroke-width:0.268211"
         d="m 11.41341,248.95951 0.929741,0.61982 v 0.30384 h -0.309914 l -0.941894,-0.61375 v -0.30991 z m 0.29776,2.06001 q -0.352451,0 -0.607674,0.26738 -0.249146,0.26737 -0.358527,0.63806 -0.109382,0.37068 -0.109382,0.78997 0,0.30992 0.06077,0.6016 0.06684,0.28561 0.194455,0.54083 0.127612,0.24914 0.346374,0.40106 0.22484,0.15192 0.510446,0.15192 0.273454,0 0.48614,-0.15192 0.212685,-0.15192 0.328143,-0.40106 0.121535,-0.24915 0.176226,-0.53475 0.06077,-0.28561 0.06077,-0.58945 0,-0.42537 -0.103304,-0.79605 -0.09723,-0.37676 -0.358528,-0.64414 -0.255223,-0.27345 -0.625904,-0.27345 z m 0.01823,-0.76567 q 0.54083,0 0.947971,0.38891 0.407142,0.38284 0.595521,0.94798 0.188379,0.55905 0.188379,1.17888 0,0.61375 -0.188379,1.15458 -0.188379,0.54083 -0.601597,0.91759 -0.407142,0.37068 -0.960125,0.37068 -0.419295,0 -0.765669,-0.21268 -0.340297,-0.21269 -0.552983,-0.55906 -0.206609,-0.35246 -0.322067,-0.77783 -0.1093816,-0.42537 -0.1093816,-0.87505 0,-0.45575 0.1093816,-0.89328 0.115458,-0.4436 0.328144,-0.81428 0.212685,-0.37068 0.55906,-0.59552 0.346374,-0.23092 0.771745,-0.23092 z" />
      <path
         id="path1418"
         style="stroke-width:0.268211"
         d="m 16.670997,248.95951 h 0.322067 v 0.30991 l -0.941894,0.61375 h -0.309914 v -0.30384 z m -0.340297,2.06001 q -0.352451,0 -0.607674,0.26738 -0.249146,0.26737 -0.358528,0.63806 -0.109381,0.37068 -0.109381,0.78997 0,0.30992 0.06077,0.6016 0.06684,0.28561 0.194455,0.54083 0.127612,0.24914 0.346374,0.40106 0.22484,0.15192 0.510446,0.15192 0.273453,0 0.486139,-0.15192 0.212686,-0.15192 0.328144,-0.40106 0.121535,-0.24915 0.176226,-0.53475 0.06077,-0.28561 0.06077,-0.58945 0,-0.42537 -0.103305,-0.79605 -0.09723,-0.37676 -0.358527,-0.64414 -0.255223,-0.27345 -0.625904,-0.27345 z m 0.01823,-0.76567 q 0.54083,0 0.947971,0.38891 0.407142,0.38284 0.595521,0.94798 0.188378,0.55905 0.188378,1.17888 0,0.61375 -0.188378,1.15458 -0.188379,0.54083 -0.601598,0.91759 -0.407141,0.37068 -0.960124,0.37068 -0.419295,0 -0.765669,-0.21268 -0.340298,-0.21269 -0.552983,-0.55906 -0.20661,-0.35246 -0.322068,-0.77783 -0.109381,-0.42537 -0.109381,-0.87505 0,-0.45575 0.109381,-0.89328 0.115458,-0.4436 0.328144,-0.81428 0.212686,-0.37068 0.55906,-0.59552 0.346374,-0.23092 0.771746,-0.23092 z" />
      <path
         id="path1420"
         style="stroke-width:0.268211"
         d="m 20.950231,251.01952 q -0.35245,0 -0.607673,0.26738 -0.249147,0.26737 -0.358528,0.63806 -0.109381,0.37068 -0.109381,0.78997 0,0.30992 0.06077,0.6016 0.06684,0.28561 0.194456,0.54083 0.127611,0.24914 0.346374,0.40106 0.224839,0.15192 0.510446,0.15192 0.273453,0 0.486139,-0.15192 0.212686,-0.15192 0.328144,-0.40106 0.121535,-0.24915 0.176225,-0.53475 0.06077,-0.28561 0.06077,-0.58945 0,-0.42537 -0.103305,-0.79605 -0.09723,-0.37676 -0.358528,-0.64414 -0.255223,-0.27345 -0.625904,-0.27345 z m 0.01823,-0.76567 q 0.540829,0 0.947971,0.38891 0.407141,0.38284 0.59552,0.94798 0.188379,0.55905 0.188379,1.17888 0,0.61375 -0.188379,1.15458 -0.188379,0.54083 -0.601597,0.91759 -0.407141,0.37068 -0.960125,0.37068 -0.419295,0 -0.765669,-0.21268 -0.340297,-0.21269 -0.552983,-0.55906 -0.206609,-0.35246 -0.322067,-0.77783 -0.109381,-0.42537 -0.109381,-0.87505 0,-0.45575 0.109381,-0.89328 0.115458,-0.4436 0.328144,-0.81428 0.212686,-0.37068 0.55906,-0.59552 0.346374,-0.23092 0.771746,-0.23092 z" />
      <path
         id="path1422"
         style="stroke-width:0.268211"
         d="m 24.840553,248.83797 q 0.29776,0 0.528676,0.10938 0.230916,0.10939 0.407141,0.21877 0.176226,0.10938 0.346374,0.10938 h 0.0061 q 0.109381,0 0.200532,-0.0911 0.01823,-0.0243 0.103305,-0.13369 0.09115,-0.10938 0.139765,-0.158 l 0.449679,0.40107 q -0.02431,0.0304 -0.109382,0.13369 -0.079,0.1033 -0.145841,0.17014 -0.2613,0.28561 -0.638058,0.28561 -0.328144,0 -0.704902,-0.21876 -0.376757,-0.21876 -0.583366,-0.21876 -0.04861,0 -0.109382,0.079 -0.170148,0.23092 -0.285606,0.35245 l -0.425372,-0.42537 q 0.02431,-0.0304 0.224839,-0.29168 0.24307,-0.32207 0.595521,-0.32207 z m 0.61375,2.18155 q -0.352451,0 -0.607674,0.26738 -0.249146,0.26737 -0.358527,0.63806 -0.109382,0.37068 -0.109382,0.78997 0,0.30992 0.06077,0.6016 0.06684,0.28561 0.194455,0.54083 0.127612,0.24914 0.346375,0.40106 0.224839,0.15192 0.510446,0.15192 0.273453,0 0.486139,-0.15192 0.212685,-0.15192 0.328143,-0.40106 0.121535,-0.24915 0.176226,-0.53475 0.06077,-0.28561 0.06077,-0.58945 0,-0.42537 -0.103304,-0.79605 -0.09723,-0.37676 -0.358528,-0.64414 -0.255223,-0.27345 -0.625904,-0.27345 z m 0.01823,-0.76567 q 0.54083,0 0.947971,0.38891 0.407142,0.38284 0.595521,0.94798 0.188379,0.55905 0.188379,1.17888 0,0.61375 -0.188379,1.15458 -0.188379,0.54083 -0.601597,0.91759 -0.407142,0.37068 -0.960125,0.37068 -0.419295,0 -0.765669,-0.21268 -0.340297,-0.21269 -0.552983,-0.55906 -0.206609,-0.35246 -0.322067,-0.77783 -0.109381,-0.42537 -0.109381,-0.87505 0,-0.45575 0.109381,-0.89328 0.115458,-0.4436 0.328144,-0.81428 0.212685,-0.37068 0.55906,-0.59552 0.346374,-0.23092 0.771745,-0.23092 z" />
      <path
         id="path1424"
         style="stroke-width:0.268211"
         d="m 30.487051,249.88317 v -0.61375 h 0.625904 v 0.61375 z m -1.221424,0 v -0.61375 h 0.625904 v 0.61375 z m 0.923664,1.13635 q -0.352451,0 -0.607674,0.26738 -0.249146,0.26737 -0.358528,0.63806 -0.109381,0.37068 -0.109381,0.78997 0,0.30992 0.06077,0.6016 0.06684,0.28561 0.194455,0.54083 0.127612,0.24914 0.346374,0.40106 0.22484,0.15192 0.510446,0.15192 0.273454,0 0.486139,-0.15192 0.212686,-0.15192 0.328144,-0.40106 0.121535,-0.24915 0.176226,-0.53475 0.06077,-0.28561 0.06077,-0.58945 0,-0.42537 -0.103305,-0.79605 -0.09723,-0.37676 -0.358527,-0.64414 -0.255223,-0.27345 -0.625904,-0.27345 z m 0.01823,-0.76567 q 0.54083,0 0.947971,0.38891 0.407142,0.38284 0.595521,0.94798 0.188378,0.55905 0.188378,1.17888 0,0.61375 -0.188378,1.15458 -0.188379,0.54083 -0.601597,0.91759 -0.407142,0.37068 -0.960125,0.37068 -0.419295,0 -0.765669,-0.21268 -0.340297,-0.21269 -0.552983,-0.55906 -0.206609,-0.35246 -0.322067,-0.77783 -0.109382,-0.42537 -0.109382,-0.87505 0,-0.45575 0.109382,-0.89328 0.115458,-0.4436 0.328143,-0.81428 0.212686,-0.37068 0.55906,-0.59552 0.346374,-0.23092 0.771746,-0.23092 z" />
      <path
         id="path1426"
         style="stroke-width:0.268211"
         d="m 43.731893,248.94128 0.929741,0.61982 v 0.30384 h -0.309913 l -0.941895,-0.61375 v -0.30991 z m -0.224839,6.27727 q -0.589443,-0.006 -0.87505,-0.2613 -0.285607,-0.2613 -0.285607,-0.92974 v -3.77366 l 0.638058,0.006 0.0061,3.74935 q 0,0.30383 0.133689,0.43145 0.139765,0.12761 0.443602,0.12761 h 0.996585 q 0.309913,0 0.443601,-0.12154 0.133689,-0.12761 0.133689,-0.43752 l -0.0061,-3.77366 0.619827,0.006 -0.0061,3.77973 q 0,0.66844 -0.27953,0.92974 -0.27953,0.2613 -0.881127,0.2613 z" />
      <path
         id="path1428"
         style="stroke-width:0.268211"
         d="m 48.977327,248.94128 h 0.322067 v 0.30991 l -0.941894,0.61375 h -0.309914 v -0.30384 z m -0.850743,6.27727 q -0.589444,-0.006 -0.87505,-0.2613 -0.285607,-0.2613 -0.285607,-0.92974 v -3.77366 l 0.638057,0.006 0.0061,3.74935 q 0,0.30383 0.133688,0.43145 0.139765,0.12761 0.443602,0.12761 h 0.996585 q 0.309914,0 0.443602,-0.12154 0.133688,-0.12761 0.133688,-0.43752 l -0.0061,-3.77366 0.619827,0.006 -0.0061,3.77973 q 0,0.66844 -0.27953,0.92974 -0.27953,0.2613 -0.881127,0.2613 z" />
      <path
         id="path1430"
         style="stroke-width:0.268211"
         d="m 53.372018,248.35183 0.844666,1.31258 -0.370681,0.18838 -0.473985,-0.73529 -0.461832,0.74744 -0.370682,-0.19445 z m -0.625904,6.86672 q -0.589444,-0.006 -0.875051,-0.2613 -0.285606,-0.2613 -0.285606,-0.92974 v -3.77366 l 0.638057,0.006 0.0061,3.74935 q 0,0.30383 0.133688,0.43145 0.139765,0.12761 0.443602,0.12761 h 0.996585 q 0.309914,0 0.443602,-0.12154 0.133688,-0.12761 0.133688,-0.43752 l -0.0061,-3.77366 0.619828,0.006 -0.0061,3.77973 q 0,0.66844 -0.27953,0.92974 -0.27953,0.2613 -0.881127,0.2613 z" />
      <path
         id="path1432"
         style="stroke-width:0.268211"
         d="m 58.179926,249.86494 v -0.61375 h 0.625904 v 0.61375 z m -1.221424,0 v -0.61375 h 0.625904 v 0.61375 z m 0.407141,5.35361 q -0.589443,-0.006 -0.87505,-0.2613 -0.285607,-0.2613 -0.285607,-0.92974 v -3.77366 l 0.638058,0.006 0.0061,3.74935 q 0,0.30383 0.133688,0.43145 0.139765,0.12761 0.443602,0.12761 h 0.996585 q 0.309913,0 0.443602,-0.12154 0.133688,-0.12761 0.133688,-0.43752 l -0.0061,-3.77366 0.619827,0.006 -0.0061,3.77973 q 0,0.66844 -0.27953,0.92974 -0.27953,0.2613 -0.881127,0.2613 z" />
      <path
         id="path1434"
         style="stroke-width:0.268211"
         d="m 62.79946,248.95951 h 0.322067 v 0.30991 l -0.941895,0.61375 h -0.309913 v -0.30384 z m -0.27953,3.14775 0.960124,-0.96013 v -0.87505 h 0.613751 l 0.0061,1.18497 -1.276115,1.27611 v 2.47931 l -0.595521,-0.006 v -2.4793 l -1.276115,-1.27612 0.0061,-1.18496 h 0.613751 v 0.87505 z" />
    </g>
    <g
       style="font-style:normal;font-weight:normal;font-size:10.5833px;line-height:1.25;font-family:sans-serif;letter-spacing:0px;word-spacing:0px;white-space:pre;shape-inside:url(#rect1129);fill:#000000;fill-opacity:1;stroke:none"
       id="text1127" />
    <g
       style="font-style:normal;font-weight:normal;font-size:10.5833px;line-height:1.25;font-family:sans-serif;letter-spacing:0px;word-spacing:0px;fill:#000000;fill-opacity:1;stroke:none;stroke-width:0.264583"
       id="text1135" />
    <g
       style="font-style:normal;font-variant:normal;font-weight:normal;font-stretch:normal;font-size:6.22258px;line-height:1.25;font-family:Armagetronad;-inkscape-font-specification:'Armagetronad, Normal';font-variant-ligatures:normal;font-variant-caps:normal;font-variant-numeric:normal;font-feature-settings:normal;text-align:start;letter-spacing:0.548116px;word-spacing:0px;writing-mode:lr-tb;text-anchor:start;fill:#ffffff;fill-opacity:1;stroke:none;stroke-width:0.268211"
       id="text817-4"
       transform="scale(0.91658734,1.0910035)"
       aria-label="^">
      <path
         id="path1375"
         style="stroke-width:0.268211"
         d="m 20.918077,248.75217 0.844667,1.31258 -0.370681,0.18837 -0.473986,-0.73528 -0.461832,0.74744 -0.370681,-0.19446 z" />
    </g>
  </g>
</svg>
